<?xml version="1.0" encoding="utf-8"?>
<!-- Generator: Adobe Illustrator 27.5.0, SVG Export Plug-In . SVG Version: 6.00 Build 0)  -->
<svg version="1.1" id="_x2018_ëîé_x5F_1" xmlns="http://www.w3.org/2000/svg" xmlns:xlink="http://www.w3.org/1999/xlink"
	 x="0px" y="0px" viewBox="0 0 3200 2000" style="enable-background:new 0 0 3200 2000;" xml:space="preserve">
<rect x="0" style="fill:#FFFFFF;" width="3200" height="2000"/>
<g>
	<path style="fill:#EBF3FA;" d="M3074.074,1106.426c-0.027,1.863-0.066,3.715-0.119,5.604v0.013
		c-0.979,40.262-4.455,86.338-10.535,134.556l-0.727,5.564c-3.833,29.567-8.658,59.862-14.5,90.091v0.014
		c-1.137,5.921-2.313,11.83-3.542,17.738c0,0,0,0.013,0,0.026c-3.093,15.002-6.437,29.938-10.032,44.715v0.013
		c-0.476,1.957-0.965,3.899-1.454,5.843c-6.424,25.813-13.628,51.072-21.637,75.234c-8.565,25.827-18.029,50.386-28.444,73.001
		v0.013c-0.926,2.022-1.864,4.031-2.815,6.027c-19.231,40.485-41.556,74.349-67.119,97.493
		c-9.609,8.724-19.668,15.914-30.188,21.373c-3.596,1.863-7.243,3.528-10.944,4.982l-36.534,0.212l-5.551,0.026l-271.568,1.572
		l-6.041,0.04l-172.41,0.991l-627.598-1.969l-158.703-0.503h-0.198l-6.172-0.013l-97.863-0.305l-189.276-0.595l-950.913-2.974
		c0,0-51.284-35.767-101.445-102.635c-0.066-0.093-0.132-0.185-0.198-0.264c-27.175-36.296-54.007-81.712-72.168-135.521
		c-14.671-43.513-23.673-92.496-22.589-146.597c0.595-29.646,2.578-65.559,8.367-104.802
		c24.743-167.599,119.064-396.078,472.331-458.571c408.913-72.34,300.198-532.51,903.105-487.293
		c237.89,17.844,343.459,194.933,527.315,147.759c693.646-177.975,903.99,133.353,982.728,488.522
		c2.273,10.204,4.428,20.448,6.478,30.718c1.083,5.419,2.141,10.838,3.172,16.271c5.035,26.541,9.424,53.214,13.31,79.834
		c0.119,0.767,0.238,1.547,0.344,2.314c0.185,1.309,0.37,2.643,0.542,4.005C3073.505,1042.017,3074.734,1071.968,3074.074,1106.426z
		"/>
	<g>
		<path style="fill:#DFEBFA;" d="M247.552,1577.969v-386.918v-165.63H444.08v140.608h60.013V906h13.043h2.349h35.177h12.229h2.349
			h67.107h2.349h42.235h2.349h17.34v41.146v22.179v41.146v23.501v41.146v24.531v41.146v7.918h66.328v-39.257l78.238,0.344v-63.616
			h15.747v-12.583h2.078v12.583h60.414v0.026h12.088v-12.609h2.077v12.609h14.566v126.492h93.147v46.565h51.774v-27.029h48.019
			V1084.9h23.939h3.624h57.392h5.63h37.951v-1.296h-0.047v-11.909h0.047v-11.274h-0.047v-18.756h0.047v-11.975h-0.047v-18.756h0.047
			v-11.976h-0.047v-18.755h0.047V967.25h-0.047v-18.742h0.047v-16.482h-0.047v-18.743h0.047v-12.438h0.035h11.285h1.817h59.871
			h23.927h1.818h15.287v98.114l10.765,0.066v-0.066h-0.083v-18.755h0.083V967.25h-0.083v-18.742h0.083v-12.9h-0.083v-18.756h0.083
			v-0.053h101.634v0.053h17.458c0.909,0.502,1.806,1.004,2.715,1.494v125.118h58.596l1.912,146.253l6.493,495.024l-97.869-0.304
			l-189.28-0.595l-950.912-2.974c0,0-51.277-35.767-101.445-102.635L247.552,1577.969z"/>
		<path style="fill:#DFEBFA;" d="M247.741,1578.233v-387.183h-0.189h-86.395c-5.796,39.242-7.779,75.154-8.369,104.802
			c-1.086,54.1,7.921,103.084,22.593,146.597c18.155,53.809,44.986,99.225,72.171,135.52L247.741,1578.233z"/>
		<rect x="1169.034" y="1034.841" style="fill:#DFEBFA;" width="3.621" height="50.978"/>
		<rect x="1230.046" y="991.062" style="fill:#DFEBFA;" width="5.632" height="98.725"/>
		<rect x="517.142" y="887.822" style="fill:#DFEBFA;" width="2.346" height="18.179"/>
		<rect x="566.89" y="887.822" style="fill:#DFEBFA;" width="2.347" height="18.179"/>
		<rect x="680.937" y="887.822" style="fill:#DFEBFA;" width="2.346" height="18.179"/>
		<rect x="1284.958" y="886.819" style="fill:#DFEBFA;" width="1.811" height="14.03"/>
		<rect x="1370.57" y="886.819" style="fill:#DFEBFA;" width="1.811" height="14.03"/>
		<rect x="636.351" y="887.822" style="fill:#DFEBFA;" width="2.346" height="18.179"/>
	</g>
	<g>
		<path style="fill:#DFEBFA;" d="M1416.324,1684.754l177.71,0.502l702.739,1.97l551.028-2.842c4.15-1.454,8.234-3.119,12.253-4.983
			c61.924-28.695,109.533-105.146,143.966-197.906v-439.393l-83.033,0.013V917.01c-1.083-0.503-2.142-1.005-3.212-1.494h-20.646
			v-0.066h-120.175v0.066h-0.105v18.756h0.105v12.887h-0.105v18.755h0.105v12.941h-0.105v18.755h0.105v0.066l-12.729-0.066v-98.1
			h-18.081h-2.142h-28.299h-70.793h-2.142h-13.363h-0.026v12.424h-0.065v18.743h0.065v16.483h-0.065v18.755h0.065v12.941h-0.065
			v18.755h0.065v11.975h-0.065v18.756h0.065v11.976h-0.065v18.755h0.065v11.275h-0.065v11.909h0.065v1.309h-44.887h-6.648h-67.872
			h-4.283h-28.298v107.326h-56.783v27.03h-61.224v-46.553h-110.129v-126.505h-17.223v-12.597h-2.472v12.597h-14.288v-0.014h-71.429
			v-12.583h-2.458v12.583h-18.623v63.616l-92.511-0.356v39.27h-78.433v-7.931v-41.146v-24.532v-41.146v-23.5v-41.147v-22.179
			v-41.146h-20.501h-2.775h-49.936h-2.776h-79.358h-2.775h-14.474h-41.582h-2.776h-15.425v260.03h-70.965v-140.609h-232.378v165.644
			v495.038H1416.324z"/>
		<polygon style="fill:#DFEBFA;" points="1416.324,1684.754 1416.324,1189.716 1416.099,1189.716 1401.93,1189.716 
			1299.612,1189.716 1299.612,1684.437 1409.2,1684.74 1416.099,1684.754 		"/>
		<g>
			<rect x="2629.414" y="899.506" style="fill:#EEF6FF;" width="86.296" height="24.986"/>
			<rect x="2629.414" y="937.964" style="fill:#EEF6FF;" width="86.296" height="24.986"/>
			<rect x="2629.414" y="977.225" style="fill:#EEF6FF;" width="86.296" height="24.986"/>
			<rect x="2629.414" y="1017.111" style="fill:#EEF6FF;" width="86.296" height="24.986"/>
			<rect x="2629.414" y="1055.597" style="fill:#EEF6FF;" width="86.296" height="24.986"/>
		</g>
		<g>
			<rect x="2629.414" y="1097.953" style="fill:#EEF6FF;" width="86.296" height="24.986"/>
			<rect x="2629.414" y="1136.411" style="fill:#EEF6FF;" width="86.296" height="24.986"/>
			<rect x="2629.414" y="1175.672" style="fill:#EEF6FF;" width="86.296" height="24.986"/>
			<rect x="2629.414" y="1215.559" style="fill:#EEF6FF;" width="86.296" height="24.986"/>
			<rect x="2629.414" y="1254.044" style="fill:#EEF6FF;" width="86.296" height="24.986"/>
		</g>
		<g>
			<rect x="2777.125" y="915.892" style="fill:#EEF6FF;" width="86.296" height="24.986"/>
			<rect x="2777.125" y="954.349" style="fill:#EEF6FF;" width="86.296" height="24.986"/>
			<rect x="2777.125" y="993.61" style="fill:#EEF6FF;" width="86.296" height="24.986"/>
			<rect x="2777.125" y="1033.497" style="fill:#EEF6FF;" width="86.296" height="24.985"/>
			<rect x="2777.125" y="1071.982" style="fill:#EEF6FF;" width="86.296" height="24.985"/>
		</g>
		<g>
			<rect x="2777.125" y="1112.105" style="fill:#EEF6FF;" width="86.296" height="24.986"/>
			<rect x="2777.125" y="1150.563" style="fill:#EEF6FF;" width="86.296" height="24.986"/>
			<rect x="2777.125" y="1189.825" style="fill:#EEF6FF;" width="86.296" height="24.985"/>
			<rect x="2777.125" y="1229.711" style="fill:#EEF6FF;" width="86.296" height="24.986"/>
			<rect x="2777.125" y="1268.196" style="fill:#EEF6FF;" width="86.296" height="24.986"/>
		</g>
		<g>
			<rect x="2777.125" y="1312.334" style="fill:#EEF6FF;" width="86.296" height="24.986"/>
			<rect x="2777.125" y="1350.792" style="fill:#EEF6FF;" width="86.296" height="24.986"/>
			<rect x="2777.125" y="1390.054" style="fill:#EEF6FF;" width="86.296" height="24.985"/>
			<rect x="2777.125" y="1429.939" style="fill:#EEF6FF;" width="86.296" height="24.986"/>
			<rect x="2777.125" y="1468.425" style="fill:#EEF6FF;" width="86.296" height="24.986"/>
		</g>
		<rect x="2505.696" y="1033.497" style="fill:#DFEBFA;" width="4.281" height="50.978"/>
		<rect x="2577.84" y="989.718" style="fill:#DFEBFA;" width="6.659" height="98.725"/>
		<rect x="1734.872" y="886.479" style="fill:#DFEBFA;" width="2.775" height="18.179"/>
		<rect x="1793.697" y="886.479" style="fill:#DFEBFA;" width="2.774" height="18.179"/>
		<rect x="1928.55" y="886.479" style="fill:#DFEBFA;" width="2.774" height="18.179"/>
		<rect x="2642.769" y="885.476" style="fill:#DFEBFA;" width="2.142" height="14.03"/>
		<rect x="2744" y="885.476" style="fill:#DFEBFA;" width="2.143" height="14.03"/>
	</g>
	<path style="fill:#9BCC8F;" d="M1521.911,1683.842h-221.813l-950.912-2.975c0,0-122.114-85.16-173.805-238.418
		c48.409-12.756,121.501-26.065,183.839-12.795c103.735,22.1,115.941,140.715,213.574,116.381
		c97.632-24.334,175.812-22.152,229.19,23.871c53.39,46.011,198.287-1.837,282.179-7.362
		c83.893-5.525,234.892,84.658,279.123,79.146C1407.516,1636.166,1514.285,1622.908,1521.911,1683.842z"/>
	<path style="fill:#9BCC8F;" d="M3011.528,1481.494c-24.89,75.102-57.511,139.524-98.379,176.533
		c-11.327,9.187-23.223,16.734-35.688,22.417H1845.908c-9.992-68.651,74.072-97.255,154.99-95.92
		c80.918,1.322,168.722,50.703,216.676-53.505c47.953-104.221,265.753-57.443,337.695-84.777
		c71.943-27.334-15.9-85.531,15.98-143.106c41.966-75.75,205.812-85.386,305.723-117.835
		c99.898-32.463,34.036-72.194,133.947-142.248c18.174-12.729,38.49-21.928,59.559-28.444
		C3082.89,1109.273,3065.033,1320.08,3011.528,1481.494z"/>
	<path style="fill:#F8FBFF;" d="M1865.528,557.275c0-18.991,15.396-34.387,34.387-34.387c18.991,0,34.387,15.396,34.387,34.387
		c0,18.992-15.396,34.387-34.387,34.387C1880.924,591.663,1865.528,576.267,1865.528,557.275z"/>
	<path style="opacity:0.95;fill:#F8FCFF;" d="M1045.901,613.292c0,0,34.771-53.174,117.917-47.266c0,0,120.714-88.626,249.44-11.817
		c0,0,136.834-19.032,238.17,16.479c67.564,23.675,89.88,48.512,89.88,48.512L1045.901,613.292z"/>
	<path style="opacity:0.95;fill:#F8FCFF;" d="M2147.063,582.541c0,0,28.874-53.173,97.922-47.265c0,0,100.245-88.626,207.144-11.816
		c0,0,113.632-19.032,197.786,16.478c56.106,23.676,74.639,48.512,74.639,48.512L2147.063,582.541z"/>
	<path style="opacity:0.95;fill:#F8FCFF;" d="M1569.056,731.938c0,0,14.669-22.433,49.748-19.94c0,0,50.927-37.39,105.234-4.985
		c0,0,57.729-8.029,100.481,6.952c28.504,9.988,37.919,20.466,37.919,20.466L1569.056,731.938z"/>
	<g>
		<path style="fill:#F9DDBF;" d="M2418.683,1687.897l-5.111-1.354c42.451-160.353,18.108-402.786,5.031-533.03
			c-5.814-57.908-7.667-78.14-4.574-82.177l4.197,3.215c0.063-0.081,0.088-0.135,0.088-0.136c-1.932,4.059,1.535,38.588,5.55,78.569
			c6.26,62.346,15.72,156.563,18.182,254.259C2444.982,1523.817,2437.122,1618.242,2418.683,1687.897z"/>
	</g>
	<g>
		<g>
			<g>
				<path style="fill:#F9DDBF;" d="M2482.486,1240.983c-142.121,0-254.142-42.996-323.089-79.065
					c-74.749-39.104-116.49-78.804-116.903-79.2l3.661-3.813c0.409,0.393,41.731,39.665,115.876,78.425
					c68.389,35.751,179.5,78.367,320.455,78.367V1240.983z"/>
			</g>
			<g>
				<path style="fill:#F9DDBF;" d="M3034.619,1400.417c-0.476,1.956-0.965,3.899-1.454,5.842
					c-33.626,8.685-71.612,14.646-113.604,17.817c-12.055,0.912-24.439,1.587-37.143,2.036c-1.797,0.065-3.607,0.132-5.418,0.185
					c-10.945,0.344-22.127,0.502-33.521,0.502c-36.018,0-74.243-1.665-114.332-4.996c-13.628-1.137-26.938-2.405-39.838-3.807
					c-1.811-0.185-3.608-0.383-5.405-0.568c-76.782-8.485-137.953-20.368-160.29-25.008c-4.653-0.951-7.613-1.599-8.697-1.837
					c-2.512,0.304-5.022,0.608-7.534,0.886c-62.85,7.124-123.77,6.939-182.284-0.502c-1.758-0.212-3.516-0.449-5.26-0.688
					c-46.13-6.213-90.766-16.958-133.644-32.212c-2.313-0.819-4.6-1.651-6.887-2.497c-1.731-0.635-3.449-1.282-5.168-1.931
					c-46.79-17.711-89.007-40.115-125.646-66.683c-0.701-0.502-1.389-1.004-2.076-1.507c-1.374-1.004-2.67-1.956-3.106-2.233
					c0.118,0.053,0.356,0.146,0.688,0.185l0.648-5.247c0.859,0.105,1.242,0.357,4.308,2.591c0.186,0.146,0.384,0.29,0.595,0.449
					c23.831,17.474,65.731,44.107,124.906,66.815c1.719,0.647,3.437,1.309,5.182,1.956c39.494,14.75,86.43,27.65,140.569,34.974
					c1.744,0.237,3.489,0.463,5.247,0.688h0.013c53.531,6.819,113.949,8.194,181.081,0.607c2.71-0.304,5.446-0.635,8.182-0.965
					l0.45-0.053l0.449,0.105c0.146,0.04,2.604,0.582,7.098,1.521c20.328,4.256,82.345,16.521,160.897,25.232
					c1.785,0.198,3.582,0.396,5.394,0.581c13.138,1.428,26.726,2.736,40.63,3.886c52.698,4.376,102.159,5.869,147.588,4.468
					c1.812-0.066,3.608-0.119,5.406-0.185c12.504-0.449,24.69-1.124,36.546-2.022
					C2962.028,1415.564,3000.637,1409.405,3034.619,1400.417z"/>
			</g>
			<g>
				<path style="fill:#F9DDBF;" d="M2983.084,1554.508c-0.926,2.022-1.864,4.031-2.815,6.027
					c-36.177,7.322-75.855,10.23-115.482,10.389c-1.149,0.014-2.3,0.014-3.45,0.014c-0.674,0-1.334,0-2.009-0.014
					c-47.966-0.093-95.59-4.124-136.591-9.173c-12.504-1.547-24.729-3.212-36.56-4.957c-1.784-0.264-3.556-0.528-5.326-0.793
					c-62.348-9.424-113.235-20.817-135.982-26.237c-6.596-1.572-10.825-2.643-12.292-3.013c-1.375,0.251-2.75,0.488-4.111,0.727
					c-84.302,14.923-160.224,17.156-225.017,13.046c-1.797-0.119-3.568-0.238-5.353-0.357c-53.347-3.7-98.974-11.671-135.269-20.235
					c-1.534-0.357-3.054-0.714-4.561-1.084c-0.198-0.053-0.396-0.093-0.595-0.146c-59.347-14.447-101.762-32.172-123.347-42.336
					c-10.508-4.93-16.086-8.089-16.244-8.182l2.617-4.6c0.158,0.092,4.956,2.802,14.05,7.137
					c20.594,9.834,63.233,27.969,123.704,42.72c0.423,0.106,0.846,0.212,1.281,0.317c1.282,0.304,2.564,0.621,3.873,0.925
					c36.309,8.592,82.081,16.589,135.679,20.263c1.771,0.133,3.556,0.238,5.34,0.344c64.264,4.031,139.512,1.758,223.047-13.046
					c1.507-0.264,3.014-0.528,4.521-0.806l0.581-0.106l0.568,0.146c0.172,0.04,3.912,1.018,10.667,2.631
					c21.452,5.168,73.305,16.932,137.357,26.62c1.771,0.265,3.542,0.528,5.34,0.793c11.882,1.758,24.161,3.437,36.731,4.983
					c52.698,6.477,98.009,9.173,136.908,9.199c1.837,0,3.647,0,5.459-0.014C2914.577,1565.412,2953.001,1560.905,2983.084,1554.508z
					"/>
			</g>
			<g>
				<path style="fill:#F9DDBF;" d="M3063.42,1242.256c-8.764,1.599-17.777,3.053-27.017,4.361c-1.718,0.238-3.437,0.476-5.168,0.714
					c-48.733,6.596-103.07,9.45-156.431,10.085c-1.771,0.026-3.542,0.053-5.326,0.066c-39.957,0.369-79.239-0.463-115.059-1.851
					c-30.07-1.163-59.176-2.776-86.312-4.573c-1.823-0.119-3.647-0.238-5.472-0.357c-93.871-6.371-162.867-14.883-163.766-14.988
					l-0.331,2.644l-0.317,2.604c0.053,0,0.305,0.04,0.78,0.093c7.917,0.965,75.182,8.975,164.718,15.015
					c1.811,0.119,3.621,0.238,5.445,0.357c26.779,1.771,55.435,3.344,85.016,4.494c34.035,1.321,66.458,1.982,97.137,1.982
					c6.37,0,12.675-0.026,18.9-0.093c1.784-0.013,3.556-0.026,5.326-0.053c32.846-0.383,63.512-1.586,91.783-3.582
					c23.171-1.639,44.769-3.82,64.727-6.543c1.731-0.225,3.463-0.476,5.168-0.727c8.816-1.256,17.315-2.617,25.471-4.084
					L3063.42,1242.256z"/>
			</g>
			<g>
				<path style="fill:#F9DDBF;" d="M3074.074,1102.083c-0.027,1.863-0.066,3.714-0.119,5.604v0.013
					c-18.809,5.645-40.05,10.495-63.683,14.526c-1.731,0.291-3.477,0.581-5.247,0.872c-13.668,2.233-28.114,4.19-43.314,5.882
					c-34.393,3.82-72.71,6.278-114.597,7.349c-1.837,0.054-3.701,0.093-5.564,0.133c-14.421,0.33-29.264,0.489-44.503,0.489
					c-17.541,0-35.609-0.225-54.18-0.648c-37.01-0.858-72.829-2.511-105.608-4.48c-1.903-0.119-3.793-0.238-5.684-0.356
					c-83.76-5.208-146.569-12.425-156.694-13.614c-0.872-0.105-1.361-0.158-1.428-0.172l0.317-2.617l0.33-2.63
					c0.833,0.092,57.894,7.005,138.719,12.504c6.82,0.476,13.813,0.925,20.964,1.36c33.757,2.089,70.859,3.834,109.242,4.719
					c27.321,0.635,56.479,0.847,86.259,0.37c4.401-0.079,8.815-0.171,13.244-0.277c54.364-1.295,110.194-5.075,160.21-13.111
					c1.996-0.317,3.979-0.635,5.947-0.979C3032.095,1113.08,3054.154,1108.163,3074.074,1102.083z"/>
			</g>
			<g>
				<path style="fill:#F9DDBF;" d="M2124.392,1681.35l-4.962-1.822c45.955-125.094,57.485-316.229,59.066-454.546
					c1.713-149.972-7.581-271.845-7.675-273.057l5.271-0.409c0.094,1.216,9.406,123.323,7.689,273.527
					C2182.197,1363.772,2170.607,1555.552,2124.392,1681.35z"/>
			</g>
			<g>
				<path style="fill:#F9DDBF;" d="M2255.139,1681.59l-4.76-2.303c29.719-61.459,50.604-134.722,62.08-217.752
					c9.188-66.497,12.395-139.364,9.528-216.577c-4.884-131.54-26.003-231.377-26.216-232.369l5.171-1.108
					c0.213,0.996,21.416,101.202,26.325,233.182c2.884,77.535-0.334,150.725-9.564,217.539
					C2306.154,1545.805,2285.104,1619.617,2255.139,1681.59z"/>
			</g>
			<g>
				<path style="fill:#F9DDBF;" d="M2661.717,1684.75l-5.076-1.482c39.806-136.451,30.712-279.666,16.074-375.783
					c-14.683-96.408-37.697-165.901-41.252-176.304c-41.497-10.315-101.941-52.371-179.706-125.031
					c-58.423-54.59-105.342-107.038-105.81-107.561l3.945-3.52c1.859,2.083,187.097,208.637,284.197,231.308l1.406,0.328
					l0.483,1.362c0.258,0.727,26.021,73.949,41.962,178.621c9.363,61.48,13.563,121.646,12.486,178.826
					C2689.077,1557.036,2679.418,1624.068,2661.717,1684.75z"/>
			</g>
			<g>
				<path style="fill:#F9DDBF;" d="M2834.175,1688.707l-5.031-1.626c53.114-164.172,53.512-305.534,44.493-395.214
					c-9.031-89.802-29.008-146.967-32.133-155.499c-70.801-26.127-121.51-92.042-151.64-142.882
					c-32.732-55.233-48.903-105.087-49.063-105.585l5.034-1.615c0.157,0.492,16.183,49.869,48.635,104.602
					c29.844,50.333,80.09,115.641,149.984,140.928l1.129,0.41l0.436,1.12c0.229,0.591,23.043,60.199,32.877,157.991
					c5.772,57.395,6.023,116.562,0.746,175.859C2873.048,1541.309,2857.75,1615.836,2834.175,1688.707z"/>
			</g>
			<g>
				<path style="fill:#F9DDBF;" d="M3048.193,1337.911v0.013c-1.137,5.922-2.313,11.83-3.542,17.738
					c-3.807-39.983-8.234-74.389-12.597-103.031c-0.277-1.797-0.542-3.556-0.819-5.3c-2.273-14.579-4.507-27.572-6.608-38.979
					c-8.565-46.287-16.469-74.771-19.602-85.253c-0.582-1.982-1.005-3.317-1.229-4.005c-0.344-0.356-0.7-0.727-1.058-1.097
					c-25.51-26.66-60.087-73.001-83.139-144.376c-8.313-25.748-12.808-47.729-15.095-61.436c-1.573-9.463-2.101-14.975-2.128-15.121
					l5.274-0.476c0.026,0.265,0.595,5.948,2.247,15.597c6.344,36.983,28.721,132.202,98.127,203.67l0.41,0.423l0.197,0.582
					c0,0.013,0.027,0.065,0.053,0.158c0.172,0.516,0.715,2.247,1.587,5.208c4.124,14.011,15.346,55.435,26.131,124.391
					c0.277,1.744,0.556,3.503,0.819,5.287C3041.082,1277.058,3044.85,1305.727,3048.193,1337.911z"/>
			</g>
		</g>
		<g>
			<path style="fill:#ED7D2B;" d="M2552.447,1687.072c-31.949-216.383-83.04-545.387-92.844-564.896
				c-3.065-4.932-30.09-27.381-213.083-126.714c-101.07-54.864-201.196-106.779-202.195-107.297l32.267-1.07
				c1.012,0.525,77.473,40.103,179.3,95.407c208.059,113,214.944,126.701,217.886,132.553c14.1,28.062,86.188,514.346,94.36,569.702
				L2552.447,1687.072z"/>
		</g>
		<path style="fill:#F99746;" d="M3053.111,912.185h-1008.78v-30.717h1002.303C3048.907,891.672,3051.062,901.916,3053.111,912.185z
			"/>
		<g>
			<path style="fill:#F99746;" d="M2007.863,1680.422L2007.863,1680.422c-6.769-0.357-11.967-6.135-11.61-12.903l41.472-786.396
				l41.094,0.696l-58.979,788.065C2019.376,1676.068,2014.057,1680.749,2007.863,1680.422z"/>
		</g>
	</g>
	<g>
		<path style="fill:#B2704B;" d="M1775.854,1103.787c0,0,50.962,80.872,52.729,90.481c1.769,9.609-0.392,90.319-0.392,90.319
			l16.911,2.701c0,0,22.795-90.973,20.96-110.501c-1.835-19.527-61.122-117.367-61.122-117.367L1775.854,1103.787z"/>
		<path style="fill:#B2704B;" d="M1797.057,1536.161c-1.163,49.17-10.746,110.288-10.746,110.288h-32.858l-21.413-105.066
			l-10.706-52.501c0,0,45.257-31.655,66.735-11.142C1795.748,1485.076,1797.704,1508.762,1797.057,1536.161z"/>
		<path style="fill:#B2704B;" d="M1687.139,1544.304c-11.869,45.892-33.85,99.978-33.85,99.978l-28.511,2.419l-0.661-107.552
			l-0.344-57.351c0,0,50.901-21.426,67.582,3.146C1697.475,1493.944,1693.999,1517.75,1687.139,1544.304z"/>
		<path style="fill:#35488B;" d="M1759.232,1478.413c-1.806,13.843-6.901,23.967-15.916,27.953
			c-25.077,11.087-53.511,10.218-77.799,5.617c-5.31-1.003-10.418-2.193-15.26-3.478c-24.569-6.474-41.996-15.341-41.996-15.341
			l21.118-209.576c23.954-4.855,56.694,6.059,88.379,54.166C1746.405,1381.248,1763.94,1442.409,1759.232,1478.413z"/>
		<path style="fill:#2C3A64;" d="M1759.232,1478.413c-1.806,13.843-6.901,23.967-15.916,27.953
			c-25.077,11.087-53.511,10.218-77.799,5.617c-5.31-1.003-10.418-2.193-15.26-3.478c-4.828-92.069,29.076-176.796,39.134-188.579
			C1721.556,1368.77,1757.707,1439.333,1759.232,1478.413z"/>
		<path style="fill:#35488B;" d="M1781.643,912.525c3.882-16.832-0.904-29.261-8.631-41.226
			c-7.409-11.476-17.816-11.972-27.819-21.692c-9.418-9.152-26.97-15.168-40.94-15.168c-44.707,0-83.421,27.371-74.596,73.784
			c2.804,14.746,0.436,26.366,12.389,43.604c14.92,21.516,33.062,38.784,62.207,38.784c15.464,0,29.017-3.567,40.94-14.839
			c6.495-6.139,15.806-6.894,21.523-13.577C1778.264,948.698,1777.403,930.911,1781.643,912.525z"/>
		<path style="fill:#35488B;" d="M1669.968,1291.679l27.732,228.859c0,0,58.746,13.82,123.312-6.419
			c0,0-19.236-219.369-34.707-235.365C1770.834,1262.759,1669.968,1291.679,1669.968,1291.679z"/>
		<path style="fill:#A56941;" d="M1663.215,1021.534l55.718,28.477l11.165-38.654c0,0-7.099-13.377-10.31-35.29
			c-1.343-9.215-2.009-19.94-1.153-31.818l-45.396,23.245c0,0,1.082,4.197,1.808,10.392c0.772,6.694,1.118,15.719-0.785,24.292
			C1672.62,1009.537,1669.327,1016.565,1663.215,1021.534z"/>
		<path style="fill:#F99746;" d="M1627.313,1297.627c61.979,16.826,141.029,7.396,160.503,4.662c2.91-0.403,4.487-0.666,4.487-0.666
			c6.854-1.647,11.516-7.782,11.516-14.601c0-0.876-0.088-1.771-0.245-2.664l-18.369-102.013l6.17-51.217l3.505-29.201l8.011-66.677
			c-26.537-13.496-50.673-20.718-72.794-23.891c-8.466,8.677-25.188,21.436-43.89,19.001c-14.058-1.841-16.286-9.151-16.041-17.161
			c-20.215,2.565-37.916,16.418-37.916,16.418l-4.551,217.192C1626.542,1261.219,1613.379,1293.841,1627.313,1297.627z"/>
		<path style="fill:#8E512F;" d="M1674.261,1002.177c25.813-0.69,45.527-26.11,45.527-26.11l-44.742,1.819
			C1675.818,984.58,1676.164,993.604,1674.261,1002.177z"/>
		<path style="fill:#B2704B;" d="M1671.804,986.584c0,0,57.036,6.951,58.253-33.231c1.217-40.182-22.557-66.211-38.424-65.914
			c-31.642,0.593-36.861,13.38-40.529,26.693C1647.435,927.445,1645.547,983.752,1671.804,986.584z"/>
		<path style="fill:#FFFFFF;" d="M1687.059,963.425c0,0-1.242,5.011-13.733,4.088c0,0-10.488-0.773-10.102-6.292
			C1663.224,961.221,1673.447,957.413,1687.059,963.425z"/>
		<path style="fill:#35488B;" d="M1677.515,887.813c0,0,48.742-0.03,37.542,33.433c-7.06,21.091,16.414,24.371,16.414,24.371
			l11.296-33.805l-7.075-26.336L1677.515,887.813z"/>
		<path style="fill:#B2704B;" d="M1654,1023.293c0,0-71.333-63.632-75.688-72.378c-4.355-8.746-24.591-86.908-24.591-86.908
			l-17,2.078c0,0,3.243,93.73,10.404,111.989c7.162,18.259,91.186,95.897,91.186,95.897L1654,1023.293z"/>
		<path style="fill:#B2704B;" d="M1553.72,864.007c0,0-0.336-7.368,2.045-13.566c2.381-6.199,0.98-22.296-2.061-21.391
			s-1.681,6.688-5.082,6.008c-3.401-0.681-8.844-19.389-13.266-17.688c-4.422,1.701-7.639,7.993-6.278,21.599
			c1.36,13.606,7.643,27.115,7.643,27.115L1553.72,864.007z"/>
		<path style="fill:#B2704B;" d="M1828.192,1284.588c0,0-1.713,7.173-5.715,12.472c-4.002,5.299-7.107,21.157-3.933,21.127
			c3.173-0.03,3.464-5.963,6.545-4.369c3.081,1.595,3.139,21.078,7.859,20.666c4.72-0.412,9.551-5.57,12.004-19.022
			c2.454-13.451,0.15-28.172,0.15-28.172L1828.192,1284.588z"/>
		<path style="fill:#F99746;" d="M1664.307,1014.257l-45.168-22.626c0,0-29.246,44.15-10.747,79.432c0,0,20.007,9.021,22.397,28.256
			L1664.307,1014.257z"/>
		<path style="fill:#F99746;" d="M1730.098,1011.356l8.37,16.657l8.133,16.183l43.482,86.572
			c6.313-8.156,50.866-24.672,50.866-24.672s-23.674-53.185-38.061-70.842c-4.138-5.076-11.902-9.202-20.892-12.508
			c-7.407-2.747-15.647-4.923-23.34-6.611C1743.283,1012.771,1730.098,1011.356,1730.098,1011.356z"/>
		<path style="fill:#F9DDBF;" d="M1687.139,1544.304c-11.869,45.892-33.85,99.978-33.85,99.978l-28.511,2.419l-0.661-107.552
			C1638.551,1541.515,1665.053,1545.163,1687.139,1544.304z"/>
		<path style="fill:#35488B;" d="M1624.691,1643.512c0,0-5.586,10.901-17.963,13.598c-7.796,1.698-14.471,5.755-18.625,11.444
			c-3.51,4.808-0.115,11.569,5.838,11.569h62.82c5.35,0,9.524-4.615,8.989-9.938c-0.469-4.653-0.958-10.073-1.171-14.229
			c-0.464-9.073-9.551-16.377-9.551-16.377L1624.691,1643.512z"/>
		<path style="fill:#F9DDBF;" d="M1797.057,1536.161c-1.163,49.17-10.746,110.288-10.746,110.288h-32.858l-21.413-105.066
			C1746.209,1543.008,1769.154,1543.762,1797.057,1536.161z"/>
		<path style="fill:#35488B;" d="M1752.857,1643.534c0,0-3.547,10.879-15.924,13.575c-7.796,1.698-14.471,5.755-18.624,11.444
			c-3.511,4.808-0.115,11.569,5.838,11.569h62.82c5.35,0,9.524-4.615,8.989-9.938c-0.469-4.653-0.958-10.073-1.171-14.229
			c-0.464-9.073-7.412-16.654-7.412-16.654L1752.857,1643.534z"/>
	</g>
	<g>
		<path style="fill:#FFB27D;" d="M2784.043,1285.287c2.792,4.493-33.665,182.402-27.967,224.871
			c3.65,27.211,78.421,146.262,78.421,146.262l24.448-19.46c0,0-33.408-111.144-43.367-128.097
			c-8.395-14.291,69.738-108.387,41.992-166.734C2829.825,1283.781,2784.043,1285.287,2784.043,1285.287z"/>
		<path style="fill:#35488B;" d="M2823.738,1641.523c0,0-6.481,12.65-20.844,15.779c-9.047,1.971-16.793,6.679-21.613,13.28
			c-4.073,5.579-0.133,13.426,6.775,13.426h72.898c6.208,0,11.053-5.356,10.432-11.533c-0.543-5.399-1.111-11.688-1.357-16.512
			c-0.539-10.528-11.084-19.004-11.084-19.004L2823.738,1641.523z"/>
		<path style="fill:#FFB27D;" d="M2746.745,1301.178c1.518,5.067-95.466,121.679-97.076,185.888
			c-1.61,64.208-16.388,152.51-16.388,152.51l35.206-4.563c0,0,45.646-111.92,40.414-135.534
			c-3.585-16.182,92.021-87.191,80.524-150.769C2777.928,1285.132,2746.745,1301.178,2746.745,1301.178z"/>
		<path style="fill:#FFB27D;" d="M2694.578,1155.421c-14.578-19.968-46.099-6.261-41.295,17.992
			c6.721,33.934,22.428,72.543,22.716,94.861c0.478,37.042,5.649,88.127,5.649,88.127l13.539-5.661c0,0,11.705-61.667,8.563-90.32
			c-3.141-28.652,12.655-63.88,4.278-82.73C2705.575,1172.17,2700.697,1163.803,2694.578,1155.421z"/>
		<path style="fill:#35488B;" d="M2808.354,1382.441l-36.982,40.145l-28.192,30.59c-9.918,1.071-19.745-0.109-29.046-2.652
			c-33.969-9.246-54.05-32.561-54.05-32.561c40.927-67.901,54.05-112.192,54.05-112.192l92.368,26.463L2808.354,1382.441z"/>
		<path style="fill:#2C3A64;" d="M2758.854,1362.787l12.517,59.799l-28.192,30.59c-9.918,1.071-19.745-0.109-29.046-2.652
			C2731.48,1433.63,2753.642,1391.996,2758.854,1362.787z"/>
		<path style="fill:#35488B;" d="M2763.094,1323.197c-7.233,20.112-12.716,130.372-12.716,130.372s46.022,13.376,109.116,0.001
			c0,0,25.202-105.488-14.683-141.73C2817.799,1287.295,2763.094,1323.197,2763.094,1323.197z"/>
		<path style="fill:#F77D48;" d="M2654.488,1126.638c0,0,81.323-48.378,131.207-8.068c7.068,5.712,53.195,47.692,72.281,132.95
			c14.609,65.259,7.832,88.671,7.832,88.671s-146.24,10.291-164.229-16.413c-17.989-26.704-5.281-52.689-20.667-87.214
			C2665.527,1202.038,2645.055,1137.241,2654.488,1126.638z"/>
		<path style="fill:#35488B;" d="M2633.281,1639.575c0,0-6.482,12.65-20.845,15.779c-9.047,1.97-16.793,6.678-21.613,13.279
			c-4.073,5.579-0.133,13.427,6.774,13.427h72.899c6.208,0,11.053-5.356,10.432-11.533c-0.543-5.4-1.111-11.689-1.358-16.512
			c-0.539-10.528-11.083-19.004-11.083-19.004L2633.281,1639.575z"/>
		<path style="fill:#35488B;" d="M2761.719,1020.484c3.431-14.879-0.801-25.867-7.63-36.443
			c-6.55-10.144-15.75-10.583-24.592-19.175c-8.325-8.09-23.84-13.408-36.19-13.408c-39.52,0-73.741,24.195-65.94,65.223
			c2.479,13.035,0.386,23.307,10.952,38.546c13.188,19.02,29.225,34.283,54.988,34.283c13.67,0,25.65-3.153,36.19-13.117
			c5.741-5.427,13.972-6.094,19.026-12.002C2758.731,1052.459,2757.971,1036.736,2761.719,1020.484z"/>
		<path style="fill:#FFB27D;" d="M2698.765,1147.232c20.714,3.033,37.883-10.153,36.922-31.066l0.009-1.826
			c0.019-3.624-1.32-7.127-3.785-9.783c-4.129-4.449-10.99-12.868-17.437-25.479c-4.248-8.323-8.339-18.301-11.354-29.864
			l-35.646,36.727c0,0,2.381,3.64,5.067,9.293c2.893,6.112,6.131,14.577,7.087,23.337c0.465,4.299-0.069,8.593-0.56,12.873
			C2677.682,1143.559,2698.765,1147.232,2698.765,1147.232z"/>
		<path style="fill:#EA9C68;" d="M2679.628,1118.569c24.308-8.979,34.846-39.492,34.846-39.492l-41.933,16.155
			C2675.434,1101.345,2678.672,1109.81,2679.628,1118.569z"/>
		<path style="fill:#FFB27D;" d="M2663.109,1094.334c0,0,57.235,6.976,58.456-33.348c1.222-40.322-22.635-66.443-38.559-66.145
			c-31.753,0.595-36.99,13.427-40.671,26.786C2638.654,1034.988,2636.76,1091.492,2663.109,1094.334z"/>
		<path style="fill:#FFFFFF;" d="M2678.417,1071.094c0,0-1.247,5.027-13.782,4.102c0,0-10.523-0.775-10.137-6.313
			C2654.498,1068.882,2664.758,1065.061,2678.417,1071.094z"/>
		<path style="fill:#35488B;" d="M2668.84,995.216c0,0,48.913-0.03,37.674,33.55c-7.084,21.165,16.472,24.456,16.472,24.456
			l11.335-33.923l-7.101-26.429L2668.84,995.216z"/>
		<path style="fill:#35488B;" d="M2714.474,1004.343c0,0-39.602,26.821-59.985,16.029c-20.385-10.793-25.965-17.72-14.273-29.441
			C2651.906,979.209,2715.255,979.733,2714.474,1004.343z"/>
		<path style="fill:#FFB27D;" d="M2750.875,1134.379c0,0,34.081,99.472,34.559,136.514c0.479,37.043-10.949,100.533-10.949,100.533
			l18.951-3.346c0,0,31.793-69.204,28.65-97.857c-3.141-28.652,0-73.683-8.377-92.533
			C2805.331,1158.84,2768.678,1106.777,2750.875,1134.379z"/>
		<path style="fill:#FFB27D;" d="M2777.145,1366.249c0,0-9,11.719-11.458,18.71c-2.457,6.99-4.856,13.972-1.101,13.436
			c3.756-0.537,7.783-15.458,8.17-11.957c0.388,3.502,3.951,15.204,5.694,22.424s13.471,13.193,16.569,5.725
			s4.643-16.581,7.082-21.908c2.439-5.328-6.591-32.205-6.591-32.205L2777.145,1366.249z"/>
		<path style="fill:#FFB27D;" d="M2697.181,1352.308c2.908,2.376,4.73,5.831,5.025,9.575c0.27,3.416,0.507,7.659,0.371,10.888
			c-0.27,6.409-0.599,12.753-3.445,11.115c-2.848-1.638-5.064-13.866-6.5-11.176c-1.437,2.69-4.731,5.786-5.924,18.123
			c-0.619,6.4-6.739,6.192-11.338-2.347c-1.265-2.35-3.858-8.56-2.474-14.549c2.249-9.725,8.137-20.539,7.981-23.675
			c-0.249-5.067,9.128-3.815,9.128-3.815L2697.181,1352.308z"/>
		<path style="fill:#F77D48;" d="M2654.488,1126.638c0,0-10.775,11.781-9.293,36.915c1.481,25.133-0.141,43.459-0.141,43.459
			s12.946,8.378,29.275,0C2690.66,1198.635,2654.488,1126.638,2654.488,1126.638z"/>
		<path style="fill:#F77D48;" d="M2767.107,1112.422c0,0-31.417,8.583-21.468,46.351c9.948,37.768,9.761,44.051,9.761,44.051
			s38.634,15.579,66.925-4.188C2822.325,1198.635,2795.906,1109.463,2767.107,1112.422z"/>
	</g>
	<g>
		<path style="fill:#FFB27D;" d="M1009.757,1158.726c0,0,79.705,211.899,90.472,258.979s22.36,218.805,22.36,218.805h-43.98
			c0,0-49.095-164.672-54.209-196.379c-5.114-31.707-171.832-213.767-162.626-244.451
			C870.979,1164.995,1009.757,1158.726,1009.757,1158.726z"/>
		<path style="fill:#F99746;" d="M1084.638,1366.535c0,0-24.839,30.53-127.739,31.083c0,0-2.516-3.528-6.581-9.573v-0.016
			c-9.267-13.777-26.588-40.534-40.657-68.027c-16.032-31.344-27.831-63.67-18.61-78.813
			c20.834-34.259,143.572-42.437,143.572-42.437L1084.638,1366.535z"/>
		<path style="fill:#FFB27D;" d="M944.712,1183.74c0,0-42.386,238.646-72.769,275.9c-30.384,37.256-154.45,171.881-154.45,171.881
			l-39.825-6.262c0,0,55.549-170.12,106.016-202.267c28.186-17.954,2.111-272.928,80.633-278.016
			C942.837,1139.89,944.712,1183.74,944.712,1183.74z"/>
		<path style="fill:#FFB27D;" d="M1063.675,968.064c0,0,62.614,152.148,99.315,149.115c36.702-3.032,107.338-47.552,107.338-47.552
			l-8.125-21.231c0,0-87.776,24.384-95.201,11.762c-7.426-12.622-42.955-127.832-59.581-129.638
			C1090.795,928.714,1063.675,968.064,1063.675,968.064z"/>
		<path style="fill:#35488B;" d="M723.67,1624.809c0,0,9.213,16.659,27.571,20.658c11.563,2.519,21.463,8.536,27.624,16.974
			c5.207,7.131,0.17,17.161-8.659,17.161H677.03c-7.935,0-14.127-6.846-13.333-14.741c0.694-6.902,1.42-14.94,1.735-21.104
			c0.689-13.457,14.167-24.29,14.167-24.29s14.851,5.758,20.059,6.433C705.701,1626.682,723.67,1624.809,723.67,1624.809z"/>
		<path style="fill:#35488B;" d="M1121.507,1621.158c0,0,11.667,20.31,30.023,24.309c11.563,2.519,21.464,8.536,27.625,16.974
			c5.207,7.131,0.17,17.161-8.659,17.161h-93.176c-7.935,0-14.127-6.846-13.333-14.741c0.694-6.902,1.42-14.94,1.736-21.104
			c0.688-13.457,8.731-21.265,8.731-21.265s14.319,4.238,22.565,3.759C1109.291,1625.537,1121.507,1621.158,1121.507,1621.158z"/>
		<path style="fill:#FFB27D;" d="M1049.487,884.338c-2.293-4.797-3.746-9.984-4.582-15.258c-1.879-11.924-0.635-24.277,0.996-33.396
			c1.524-8.437,3.367-14.103,3.367-14.103l-60.3-35.767c0.161,16.37-1.669,31.028-4.298,43.556
			c-6.275,29.792-17.156,47.539-17.156,47.539l0.681,3.055c-7.346,0.309-15.16,0.765-23.482,1.395l76.594,55.928l56.536-35.92
			C1077.842,901.366,1070.475,888.7,1049.487,884.338z"/>
		<path style="fill:#EA9C68;" d="M1044.905,869.08c-35.358-3.149-60.236-39.71-60.236-39.71l61.232,6.314
			C1044.27,844.803,1043.026,857.156,1044.905,869.08z"/>
		<g>
			<path style="fill:#FFB27D;" d="M1063.313,850.416c0,0-71.808,14.258-92.684-43.436c-22.529-62.265,9.072-104.642,33.248-106.129
				c48.211-2.966,74.865,17.005,82.073,36.81C1093.158,757.467,1102.912,842.897,1063.313,850.416z"/>
			<path style="fill:#FFFFFF;" d="M1033.945,816.321c0,0,6.55,11.146,25.441,8.215c0,0,17.14-2.007,13.88-13.756
				C1073.266,810.78,1053.918,805.51,1033.945,816.321z"/>
			<g>
				<path style="fill:#2C3A64;" d="M982.02,827.419c0,0-6.776-24.831-4.976-37.748c0,0-16.975-24.655-5.871-29.805
					c11.104-5.149,16.035,9.12,18.667,6.543c2.632-2.577,9.347-48.531,22.302-46.261c12.956,2.271,60.286,20.229,82.58,3.3
					c22.293-16.929-24.602-91.412-113.304-69.287C892.716,676.286,904.461,774.109,982.02,827.419z"/>
				<path style="fill:#2C3A64;" d="M936.145,689.421c0,0-3.21-11.998,1.543-20.129c0,0-0.512,11.575,3.709,17.003
					C945.617,691.724,936.145,689.421,936.145,689.421z"/>
				<path style="fill:#2C3A64;" d="M938.467,681.315c0,0-10.685-1.889-16.28,6.07c0,0,7.898-4.653,15.224,1.257L938.467,681.315z"/>
			</g>
		</g>
		<g>
			<path style="fill:#F9DDBF;" d="M1410.454,1583.412c0,22.388-7.603,43.011-20.393,59.413
				c-13.294,17.074-32.195,29.549-53.932,34.694c-7.183,1.701-14.68,2.604-22.367,2.604c-0.819,0-1.638,0-2.457-0.042
				c-23.081-0.566-44.166-9.24-60.505-23.29c-10.249-8.779-18.649-19.699-24.488-32.049c-5.943-12.537-9.261-26.545-9.261-41.33
				c0-7.813,0.924-15.436,2.688-22.724c4.032-16.738,12.433-31.796,23.9-43.872c14.806-15.583,34.715-26.23,57.082-29.233
				c4.263-0.589,8.61-0.883,13.042-0.883c25.265,0,48.303,9.724,65.524,25.602c15.793,14.554,26.735,34.315,30.074,56.577
				C1410.075,1573.625,1410.454,1578.477,1410.454,1583.412z"/>
			<polygon style="fill:#F77D48;" points="1340.55,1557.328 1303.568,1557.328 1285.077,1589.355 1303.568,1621.383 
				1340.55,1621.383 1359.041,1589.355 			"/>
			<path style="fill:#F77D48;" d="M1390.062,1642.825c-13.294,17.074-32.195,29.549-53.932,34.694l-1.701-2.94l18.502-32.027h36.963
				L1390.062,1642.825z"/>
			<path style="fill:#F77D48;" d="M1409.362,1568.879h-25.769l-18.481-32.027l14.176-24.55
				C1395.081,1526.855,1406.022,1546.617,1409.362,1568.879z"/>
			<path style="fill:#F77D48;" d="M1307.883,1499.974L1289.401,1532h-36.983l-8.779-15.184
				c14.806-15.583,34.715-26.23,57.082-29.233L1307.883,1499.974z"/>
			<path style="fill:#F77D48;" d="M1260.294,1592.716l-18.503,32.026h-15.479c-5.943-12.537-9.261-26.545-9.261-41.33
				c0-7.813,0.924-15.436,2.688-22.724h22.051L1260.294,1592.716z"/>
			<path style="fill:#F77D48;" d="M1312.083,1678.737l-0.777,1.344c-23.081-0.566-44.166-9.24-60.505-23.29l5.818-10.08h36.983
				L1312.083,1678.737z"/>
		</g>
		<path style="fill:#ED7D2B;" d="M950.318,1388.029c-9.267-13.777-26.588-40.534-40.657-68.027l60.233-30.884
			C969.895,1289.118,940.959,1356.654,950.318,1388.029z"/>
		<path style="fill:#F99746;" d="M817.835,1158.726c0,0-28.681,63.547-36.863,122.87c-8.182,59.323-10.228,80.802-10.228,80.802
			s55.979,48.916,137.057,35.221c0,0,109.44-184.551,103.304-196.824C1004.966,1188.52,846.202,1146.304,817.835,1158.726z"/>
		<path style="fill:#F9DDBF;" d="M1095.997,908.782c-7.16-18.139-46.827-25.123-46.827-25.123
			c-2.017,9.733-8.152,18.648-27.469,16.307c-25.696-3.131-38.695-23.625-47.465-36.828c0,0-65.271-13.643-88.737,14.601
			c-15.334,18.456-33.779,109.559-33.779,109.559l-6.748,63.729l-54.397,116.99c-0.472,1.026-0.851,2.075-1.107,3.132
			c-1.996,8.217,2.437,17.123,11.109,21.332c0,0,2.031,0.829,5.799,2.259c25.213,9.613,128.053,46.623,215.771,46.449
			c19.723-0.043,35.886-13.098,38.558-30.837l30.648-202.589C1091.356,1007.75,1106.729,935.974,1095.997,908.782z"/>
		<path style="fill:#F9DDBF;" d="M1084.638,896.715c0,0,39.997,21.212,54.828,69.344c0,0-10.739,53.186-59.834,64.437
			C1030.537,1041.747,1084.638,896.715,1084.638,896.715z"/>
		<path style="fill:#FFB27D;" d="M1262.203,1048.396c0,0,27.616-26.082,32.218-20.456c4.603,5.625,10.228,25.57,2.557,36.82
			c-7.671,11.251-26.65,4.867-26.65,4.867L1262.203,1048.396z"/>
		<g>
			<path style="fill:#FFB27D;" d="M862.486,1135.086c0,0,19.275-6.589,32.699-0.962c13.423,5.627,15.301,26.26,11.851,27.795
				c-7.991,3.556-10.618-3.314-23.794-1.999c-13.177,1.315-23.247,8.25-44.629-9.044
				C818.818,1134.868,862.486,1135.086,862.486,1135.086z"/>
			<path style="fill:#FFB27D;" d="M865.043,1135.983c0,0,14.301-9.437,16.476-11.067s2.497,4.291-2.476,9.045
				C874.068,1138.715,865.043,1135.983,865.043,1135.983z"/>
		</g>
		<path style="fill:#FFB27D;" d="M851.31,904.328c0,0-121.478,134.451-101.041,169.484c20.437,35.033,98.211,84.096,98.211,84.096
			l17.243-18.153c0,0-65.902-75.653-56.883-89.025c9.019-13.371,112.218-96.063,106.12-113.443
			C908.861,919.907,851.31,904.328,851.31,904.328z"/>
		<path style="fill:#F9DDBF;" d="M925.451,860.236c0,0-69.303,8.844-107.617,70.223c0,0,6.606,67.307,78.203,63.215
			C942.91,990.997,925.451,860.236,925.451,860.236z"/>
	</g>
	<path style="fill:#2E3552;" d="M3044.793,1687.895H129.065c-1.823,0-3.315-1.492-3.315-3.315v-1.141
		c0-1.823,1.492-3.315,3.315-3.315h2915.728c1.824,0,3.316,1.492,3.316,3.315v1.141
		C3048.109,1686.402,3046.617,1687.895,3044.793,1687.895z"/>
	<rect x="529.107" y="931.232" style="fill:#EEF6FF;" width="15.861" height="29.079"/>
	<rect x="629.593" y="931.232" style="fill:#EEF6FF;" width="15.861" height="29.079"/>
	<rect x="603.819" y="1009.216" style="fill:#EEF6FF;" width="15.861" height="29.079"/>
	<rect x="558.96" y="1089.787" style="fill:#EEF6FF;" width="15.861" height="29.078"/>
	<rect x="630.767" y="1212.109" style="fill:#EEF6FF;" width="15.861" height="29.079"/>
	<rect x="1315.017" y="1116.163" style="fill:#EEF6FF;" width="15.861" height="29.078"/>
	<rect x="1444.424" y="1259.393" style="fill:#EEF6FF;" width="15.861" height="29.078"/>
	<rect x="1215.26" y="1253.457" style="fill:#EEF6FF;" width="15.861" height="29.078"/>
	<rect x="1342.107" y="945.492" style="fill:#EEF6FF;" width="15.861" height="29.079"/>
	<rect x="1416.324" y="1034.748" style="fill:#EEF6FF;" width="15.861" height="29.079"/>
	<rect x="1897.386" y="944.248" style="fill:#EEF6FF;" width="15.86" height="29.079"/>
	<rect x="1862.982" y="1034.748" style="fill:#EEF6FF;" width="15.861" height="29.079"/>
	<rect x="1905.316" y="1288.471" style="fill:#EEF6FF;" width="15.86" height="29.079"/>
</g>
</svg>
