<?xml version="1.0" encoding="utf-8"?>
<!-- Generator: Adobe Illustrator 27.5.0, SVG Export Plug-In . SVG Version: 6.00 Build 0)  -->
<svg version="1.1" xmlns="http://www.w3.org/2000/svg" xmlns:xlink="http://www.w3.org/1999/xlink" x="0px" y="0px"
	 viewBox="0 0 800 500" style="enable-background:new 0 0 800 500;" xml:space="preserve">
<g id="BACKGROUND">
	<rect x="0.112" y="0.02" style="fill:#FFFFFF;" width="800" height="500"/>
</g>
<g id="OBJECT">
	<g>
		<path style="fill:#3F4F49;" d="M107.918,211.527c-5.596-1.809-17.465,0.648-21.664,3.173c-6.022,3.62-25.917,63.157-26.823,69.774
			c-0.347,2.538-0.135,5.077-0.417,7.611c9.132-2.933,21.409-10.782,27.239-18.801"/>
		<path style="fill:#3F4F49;" d="M185.898,211.527c5.596-1.809,17.465,0.648,21.664,3.173c6.022,3.62,49.439,107.258,49.721,109.793
			c-9.132-2.933-43.845-24.767-49.721-51.208"/>
		<path style="fill:#4C6059;" d="M107.918,211.527c0,0-6.105,0.425-9.113,0.926c-1.625,4.774-2.491,13.313-3.369,18.344
			c-2.981,17.075-5.625,33.715-6.706,51.095c-1.225,19.702-0.284,39.786-0.281,59.541c0.001,5.69,0.619,7.068,5.627,9.702
			c5.588,2.939,11.907,3.792,17.929,4.878c20.088,3.622,41.51,3.14,61.822,1.891c15.759-0.969,30.937-6.176,46.333-8.424
			c0.217-6.558,0.08-13.195,0.043-19.762c-0.072-12.634-4.063-24.53-5.29-37.03c-1.811-18.456-6.212-36.658-10.076-54.652
			c-1.576-7.341-4.146-14.365-5.706-21.704c-0.839-3.946-0.396-4.179-4.081-4.982c-4.45-0.97-8.913-1.27-13.404-1.506
			c-10.365-0.544-25.859,0.818-36.151,1.858"/>
		<g>
			<path style="fill:#826464;" d="M200.145,115.79c-0.498,5.841-1.699,14.041-1.875,19.936c-0.106,3.567,0.487,7.574-3.668,8.2
				c-0.918-4.647-0.984-9.365-1.924-13.985c-0.801-3.938-2.649-9.211-2.126-13.263c1.543-0.016,3.1,0.172,4.62-0.071"/>
			<g>
				<g>
					<g>
						<g>
							<path style="fill:#E2BEBC;" d="M205.533,155.879c-0.373,1.043-0.98,1.966-1.651,2.807c-2.81,3.52-6.907,5.755-11.161,6.091
								c-0.303-6.529-2.697-18.986,3.641-23.097C203.575,137.001,207.577,150.165,205.533,155.879z"/>
							<path style="fill:#D3AAA9;" d="M200.411,155.941c-0.231,0.646-0.607,1.218-1.023,1.739c-1.741,2.18-4.279,3.565-6.914,3.773
								c-0.188-4.044-1.67-11.76,2.255-14.307C199.198,144.247,201.677,152.401,200.411,155.941z"/>
						</g>
						<g>
							<path style="fill:#E2BEBC;" d="M97.66,158.674c0.427,1.022,1.08,1.912,1.795,2.717c2.989,3.369,7.196,5.39,11.461,5.505
								c-0.036-6.536,1.71-19.1-4.832-22.877C98.639,139.72,95.323,153.073,97.66,158.674z"/>
							<path style="fill:#D3AAA9;" d="M102.779,158.47c0.265,0.633,0.669,1.185,1.112,1.683c1.851,2.087,4.457,3.339,7.099,3.41
								c-0.022-4.049,1.059-11.831-2.993-14.171C103.385,146.73,101.332,155.001,102.779,158.47z"/>
						</g>
						<path style="fill:#EDC8C5;" d="M195.366,152.896c-0.417,17.689,1.76,29.668-14.153,38.374
							c-4.326,2.367-20.086,4.24-25.692,4.135c-13.849-0.259-34.804-0.963-41.237-9.326c-6.433-8.363-6.043-19.513-8.063-32.478
							c-2.113-13.558-4.967-27.144-1.293-40.508c1.29-4.693,3.306-9.423,7.362-13.172c4.156-3.842,10.131-6.355,16.226-8.267
							c10.482-3.29,20.015-3.221,31.322-3.378c7.977-0.111,22.908,3.317,28.855,8.019c5.396,4.267,6.648,12.06,6.884,17.782
							C195.987,124.023,195.602,142.874,195.366,152.896z"/>
						<path style="fill:#DDB1AF;" d="M161.458,157.867c0.316,1.294,0.492,2.823-0.89,3.747c-1.206,0.807-3.08,0.79-4.736,0.72
							c0.328-2.945,0.464-14.741,1.158-17.454C159.284,148.94,160.408,153.567,161.458,157.867z"/>
						<path style="fill:#DDB1AF;" d="M115.224,161.359c0.141,5.458,4.99,9.76,10.83,9.609c5.84-0.151,10.459-4.699,10.318-10.157
							c-0.141-5.458-4.99-9.761-10.83-9.609C119.702,151.353,115.083,155.9,115.224,161.359z"/>
						<path style="fill:#DDB1AF;" d="M171.396,159.903c0.141,5.458,4.99,9.76,10.829,9.609c5.84-0.152,10.459-4.699,10.318-10.157
							c-0.142-5.458-4.99-9.76-10.83-9.609C175.874,149.897,171.255,154.445,171.396,159.903z"/>
						<path style="fill:#2E3644;" d="M136.14,142.328c0.044,1.707-1.4,3.128-3.226,3.176c-1.826,0.047-3.342-1.298-3.386-3.005
							c-0.044-1.707,1.4-3.129,3.226-3.176C134.58,139.276,136.096,140.621,136.14,142.328z"/>
						<path style="fill:#2E3644;" d="M179.649,141.201c0.044,1.707-1.4,3.129-3.226,3.176c-1.826,0.047-3.342-1.298-3.386-3.005
							c-0.044-1.707,1.4-3.129,3.226-3.176C178.088,138.149,179.605,139.494,179.649,141.201z"/>
					</g>
				</g>
				
					<path style="fill:none;stroke:#968181;stroke-width:1.6664;stroke-linecap:round;stroke-linejoin:round;stroke-miterlimit:10;" d="
					M135.8,129.211c-0.97-0.756-2.743-0.712-3.992-0.582c-1.46,0.153-3.794,1.271-3.794,1.271"/>
				
					<path style="fill:none;stroke:#968181;stroke-width:1.6664;stroke-linecap:round;stroke-linejoin:round;stroke-miterlimit:10;" d="
					M172.741,128.253c0.93-0.805,2.702-0.853,3.956-0.788c1.466,0.077,3.856,1.073,3.856,1.073"/>
			</g>
			<path style="fill:#826464;" d="M112.288,119.938c-0.166,2.598-1.61,5.076-1.95,7.687c-0.361,2.769-0.526,5.678-0.811,8.468
				c-0.245,2.4-0.345,4.862-0.472,7.262c-1.321,0.175-3.758-0.299-4.819,0.503c-1.12-1.282-2.721-14.601-2.71-19.053
				c0.003-1.277-0.587-5.844,0.155-6.917c0.916-1.326,7.144-1.612,8.781-1.478"/>
			
				<path style="fill:none;stroke:#BC9191;stroke-width:1.6202;stroke-linecap:round;stroke-linejoin:round;stroke-miterlimit:10;" d="
				M140.803,167c0.066,5.067,9.804,7.031,13.676,7.359c4.985,0.424,9.06-0.103,13.1-2.513"/>
			<path style="fill:#B25F4B;" d="M150.038,105.508c1.128,3.466,3.405,15.457,8.978,14.734c2.659-0.345,2.956-4.163,3.128-6.436
				c6.094,3.955,8.343,9.687,16.72,10.118c5.983,0.308,9.616,0.77,9.621-5.883c8.066,7.45,20.604,6.278,26.13-3.713
				c4.254-7.69,2.155-12.962-8.049-27.326c0.483-7.457-8.613-12.286-14.592-14.365c-10.55-3.668-29.81-6.028-39.658,1.702
				c-4.052,3.181-3.785,8.746-3.785,13.379C148.532,92.099,147.387,101.551,150.038,105.508z"/>
			<path style="fill:#B25F4B;" d="M156.772,103.497c2.66,5.699-16.258,20.011-15.553,9.557c-3.958,4.904-8.471,12.039-15.698,11.929
				c-2.684-0.041-4.561-0.622-4.926-3.693c-5.883,3.884-11.723,4.486-18.833,3.687c-4.903-0.551-3.535-2.129-3.789-6.353
				c-4.047-0.885-7.354-0.54-8.232-4.859c-1.234-6.072,3.808-9.835,8.654-11.848c-1.884-1.692-4.492-2.5-5.306-5.293
				c-0.732-2.514-0.055-7.356,1.14-9.61c3.492-6.59,14.855-11.813,21.52-13.984c13.78-4.489,46.114-12.476,46.294,10.887"/>
			<path style="fill:#EDC8C5;" d="M140.248,191.734c0,4.744-0.27,9.568,0,14.302c0.068,1.19-0.055,5.85,0.735,6.802
				c2.47,2.978,11.588,1.488,15.271,1.488c4.84,0,7.819,1.531,8.093-3.815c0.335-6.554-0.086-13.645-0.429-20.228
				c-4.721-0.554-9.487-0.427-14.256-0.432"/>
		</g>
		<path style="fill:#EDC8C5;" d="M132.532,209.842c12.617-0.59,26.135-0.125,38.822,0.313c3.392,11.438-9.661,14.721-19.543,14.721
			c-2.94,0-6.536,0.431-9.151-0.406c-2.298-0.736-5.038-2.364-6.949-3.578C131.964,218.512,131.039,215.712,132.532,209.842z"/>
		<path style="fill:#62776F;" d="M128.677,209.692c2.177-0.55,4.249-0.516,6.49-0.501c1.212,8.605,12.54,12.31,19.717,10.826
			c4.925-1.018,11.278-4.29,11.484-10.048c2.069,0.032,4.095-0.289,6.139-0.578c2.958-0.419,5.387,2.309,4.634,5.2
			c-1.286,4.939-3.667,11.4-5.747,12.672c-7.714,4.718-22.83,3.19-31.429,2.761c-5.912-0.295-10.251-2.987-13.127-8.423
			C125.521,219.113,123.691,211.482,128.677,209.692z"/>
		<path style="fill:#525260;" d="M72.95,181.745c22.021,0.056,58.431-6.157,80.407-7.508c4.058-0.25,2.251,1.318,2.251,1.318
			c-3.194,1.683-78.902,8.984-83.143,9.717C72.234,183.865,71.985,183.623,72.95,181.745z"/>
		<path style="fill:#525260;" d="M74.227,187.872c21.993-1.119,58.02-9.266,79.892-11.788c4.039-0.466,2.318,1.196,2.318,1.196
			c-3.099,1.852-78.31,13.182-82.506,14.14C73.625,190.028,73.364,189.799,74.227,187.872z"/>
		<g>
			<path style="fill:#DDB5B3;" d="M97.299,219.23c-0.288-3.748,2.344-13.024,2.705-16.802c0.128-1.343-0.139-3.826,0.327-5.176
				c2.246-6.507,7.887-13.542,12.567-17.124c3.916-0.81,7.4-3.092,11.403-3.594c3.063-0.384,6.252-0.647,9.357-0.486
				c0.247,1.194-0.66,1.988-1.254,2.219c1.36,0.049,6.78-1.509,7.548,0.147c0.887,1.913-3.511,3.556-4.423,4.33
				c1.025,0.067,2.159,0.007,3.149,0.138c1.155,4.354-5.157,2.627-7.493,5.723c3.303-0.909,8.158,0,6.778,1.236
				c0.588,2.024-7.766,3.575-9.162,4.662c-3.738,2.912-5.398,8.289-7.558,12.513c-1.725,3.373-2.419,8.084-4.527,11.431
				c-2.935,4.661-8.062,7.429-12.389,3.248"/>
			
				<path style="fill:none;stroke:#BC9191;stroke-width:0.7531;stroke-linecap:round;stroke-linejoin:round;stroke-miterlimit:10;" d="
				M110.302,189.091c1.205-1.147,0.732-1.899,1.628-3.257c0.476-0.721,1.66-1.856,1.834-2.577c1.857-0.976,3.533-2.227,5.781-2.668
				c3.812-0.748,7.694-2.382,11.642-2.65"/>
			
				<path style="fill:none;stroke:#BC9191;stroke-width:0.7531;stroke-linecap:round;stroke-linejoin:round;stroke-miterlimit:10;" d="
				M115.875,190.112c0.475-0.844,1.404-1.393,2.011-2.215c0.792-1.073,1.372-1.799,2.594-2.462
				c3.819-2.072,8.482-2.337,12.716-2.728"/>
			
				<path style="fill:none;stroke:#BC9191;stroke-width:0.7531;stroke-linecap:round;stroke-linejoin:round;stroke-miterlimit:10;" d="
				M119.765,194.505c0.658-1.364,2.448-3.06,3.822-3.655c2.411-1.045,5.237-1.245,7.599-2.243"/>
		</g>
		<path style="fill:#62776F;" d="M96.044,214.786c-0.125,2.162-2.903,5.53-3.983,7.301c-4.176,6.846-8.037,13.867-12.289,20.671
			c-7.485,11.978-28.22,56.524-30.042,66.902c-1.201,6.838-0.858,14.451,1.122,21.045c1.265,4.212,2.048,8.913,7.04,9.622
			c4.898,0.696,9.673-0.948,14.44-2.041c2.582-0.592,5.187-1.32,7.45-2.692c10.141-6.144,12.878-20.365,16.128-30.896
			c4.907-15.903,9.183-31.938,13.594-47.988c2.07-7.534,2.477-15.468,5.098-22.761c0.895-2.49,1.512-4.437,1.771-7.086
			c0.345-3.526-0.138-3.962-3.093-6.169C108.319,216.986,104.167,214.163,96.044,214.786z"/>
		<path style="fill:#D6A538;" d="M141.228,225.004c-0.663-1.06-0.377-2.707-0.377-3.944c0-2.169,0-4.339,0-6.508
			c0-5.05-0.011-10.101,0.001-15.152c0.017-6.973-0.754-13.922-0.754-20.907c1.402-0.09,2.565-0.651,3.887-1.041
			c1.575-0.465,3.375-0.618,5.009-0.757c1.563-0.133,3.885,0.326,5.268-0.693c0.972,16.189,6.499,32.105,6.119,48.318
			C154.263,224.229,147.029,221.51,141.228,225.004z"/>
		<g>
			
				<path style="fill:none;stroke:#B78523;stroke-width:1.0041;stroke-linecap:round;stroke-linejoin:round;stroke-miterlimit:10;" d="
				M141.981,179.82c-1.119,4.055,0.126,8.991,0.126,13.166c0,3.891-0.06,7.769-0.386,11.613c-0.249,2.94,0.104,5.965,0.014,8.916
				c-0.096,3.16-0.256,6.316-0.256,9.481"/>
			
				<path style="fill:none;stroke:#B78523;stroke-width:1.0041;stroke-linecap:round;stroke-linejoin:round;stroke-miterlimit:10;" d="
				M144.616,177.561c-0.154,3.333,1.421,6.63,1.714,9.965c0.373,4.251,0.658,8.557,0.674,12.834
				c0.016,4.358-0.221,8.755-0.128,13.097"/>
			
				<path style="fill:none;stroke:#B78523;stroke-width:1.0041;stroke-linecap:round;stroke-linejoin:round;stroke-miterlimit:10;" d="
				M149.009,196.513c0,7.033,0,14.066,0,21.099c0,1.82,0.271,4.193-0.377,5.76"/>
			
				<path style="fill:none;stroke:#B78523;stroke-width:1.0041;stroke-linecap:round;stroke-linejoin:round;stroke-miterlimit:10;" d="
				M149.26,177.436c0.004,2.46,0.732,4.376,1.391,6.743c0.888,3.189,1.734,6.368,2.569,9.577c1.277,4.901,1.311,9.721,1.311,14.757
				c0,4.87,0,9.739,0,14.609"/>
			
				<path style="fill:none;stroke:#B78523;stroke-width:1.0041;stroke-linecap:round;stroke-linejoin:round;stroke-miterlimit:10;" d="
				M155.41,196.137c-0.153,2.877,0.574,6.098,0.9,8.971c0.324,2.859,0.466,5.748,0.6,8.634c0.149,3.205,0.132,6.417,0.132,9.632"/>
			
				<path style="fill:none;stroke:#B78523;stroke-width:1.0041;stroke-linecap:round;stroke-linejoin:round;stroke-miterlimit:10;" d="
				M151.771,176.306c-0.114,2.664,1.271,5.713,1.879,8.317c0.298,1.275,0.536,2.611,0.882,3.857"/>
			
				<path style="fill:none;stroke:#B78523;stroke-width:1.0041;stroke-linecap:round;stroke-linejoin:round;stroke-miterlimit:10;" d="
				M143.361,206.052c0,4.295,0.235,8.648,0.126,12.928"/>
		</g>
		<g>
			<path style="fill:#D6A538;" d="M161.226,224.251c2.69-0.574,5.774-0.788,8.658-0.464c3.906,0.439,7.94,0.643,11.851,1.17
				c3.849,0.519,7.831,2.583,11.336,4.225c1.368,0.641,3.786,2.366,3.62,4.08c-10.1,0.683-20.345-1.007-30.398-0.625
				c-0.181-1.337,0.026-2.688-0.214-4.036"/>
			<path style="fill:#F7C546;" d="M110.352,231.781c-0.893-3.79,9.244-5.999,11.68-6.285c3.967-0.465,8.067,0.154,11.96-0.618
				c4.503-0.893,7.833-1.883,12.61-1.883c9.375,0,18.056,1.88,27.36,3.011c4.381,0.533,10.922,0.75,14.593,3.384
				c2.094,1.503,3.119,3.902,4.716,5.609c-9.911,0.717-19.88,0.369-29.787,1.097c-5.778,0.425-10.719,0.44-16.349-0.023
				c-9.137-0.751-18.395,0.228-27.495-0.779"/>
			<g>
				
					<path style="fill:none;stroke:#D6A538;stroke-width:1.0041;stroke-linecap:round;stroke-linejoin:round;stroke-miterlimit:10;" d="
					M115.372,230.903c4.482-1.931,8.371-2.816,13.281-3.019c3.242-0.134,6.159-1.095,9.373-1.373
					c9.145-0.793,19.47-1.502,28.172,1.729c1.756,0.652,3.573,1.452,5.16,2.459c1.02,0.647,2.161,2.055,3.381,2.212"/>
				
					<path style="fill:none;stroke:#D6A538;stroke-width:1.0041;stroke-linecap:round;stroke-linejoin:round;stroke-miterlimit:10;" d="
					M126.166,231.279c2.396-1.584,6.723-2.305,9.533-2.385c3.571-0.101,7.113-0.508,10.69-0.349
					c4.847,0.216,9.786,0.499,14.585,1.259c1.167,0.185,2.623,0.34,3.665,0.96c0.686,0.408,1.103,1.199,1.816,1.519"/>
				
					<path style="fill:none;stroke:#D6A538;stroke-width:1.0041;stroke-linecap:round;stroke-linejoin:round;stroke-miterlimit:10;" d="
					M140.977,232.033c2.737-1.447,8.75-1.228,11.547,0.126"/>
				
					<path style="fill:none;stroke:#D6A538;stroke-width:1.0041;stroke-linecap:round;stroke-linejoin:round;stroke-miterlimit:10;" d="
					M186.788,229.146c-3.749-0.174-7.593,1.754-10.166,4.267"/>
				
					<path style="fill:none;stroke:#D6A538;stroke-width:1.0041;stroke-linecap:round;stroke-linejoin:round;stroke-miterlimit:10;" d="
					M172.856,231.028c2.176-2.081,4.534-3.129,7.28-3.765"/>
				
					<path style="fill:none;stroke:#D6A538;stroke-width:1.0041;stroke-linecap:round;stroke-linejoin:round;stroke-miterlimit:10;" d="
					M169.844,229.146c0.01-1.02,2.061-1.251,2.887-1.255"/>
			</g>
			<path style="fill:#F4EFEF;" d="M178.985,232.266c7.053,0.333,14.566-0.347,20.803,0.975c0.469,13.503-8.301,29.812-22.236,35.697
				c-10.424,4.402-22.861,3.678-34.155,3.16c-10.136-0.465-22.16-6.453-28.74-13.645c-5.384-5.885-7.883-20.621-7.47-27.832
				C107.186,230.621,162.316,231.479,178.985,232.266z"/>
			<g>
				<path style="fill:#DDB5B3;" d="M198.643,280.477c-2.253,3.008-8.284,5.389-11.045,7.992c-0.982,0.925-0.784-5.364-2.024-4.656
					c-5.977,3.414-14.856,4.988-20.737,4.598c-3.479-1.971-7.603-2.551-10.945-4.812c-2.557-1.729-5.129-3.634-7.358-5.801
					c0.601-1.061,1.807-1.06,2.406-0.843c-0.991-0.933-6.094-3.333-5.58-5.084c0.593-2.024,4.984-0.361,6.18-0.342
					c-0.727-0.726-1.62-1.428-2.278-2.179c2.001-4.036,5.61,1.423,9.407,0.633c-3.083-1.493-6.136-5.376-4.283-5.396
					c0.891-1.91,8.197,2.429,9.964,2.531c4.731,0.273,14.983-2.627,19.391-4.38c3.52-1.4,3.937-7.268,5.188-3.514
					c3.18,9.539,13.558,15.759,14.057,21.755"/>
				
					<path style="fill:none;stroke:#BC9191;stroke-width:0.7531;stroke-linecap:round;stroke-linejoin:round;stroke-miterlimit:10;" d="
					M175.549,282.82c-1.662,0.069-4.655,1.508-6.224,1.939c-0.833,0.229-2.471,0.302-3.078,0.73c-2.04-0.49-4.125-0.653-6.106-1.803
					c-3.36-1.949-7.357-3.279-10.503-5.678"/>
				
					<path style="fill:none;stroke:#BC9191;stroke-width:0.7531;stroke-linecap:round;stroke-linejoin:round;stroke-miterlimit:10;" d="
					M174.712,277.13c-0.914,0.321-7.508,1.934-8.506,2.152c-1.303,0.285-2.217,0.449-3.573,0.142
					c-4.238-0.959-7.92-3.832-11.362-6.327"/>
				
					<path style="fill:none;stroke:#BC9191;stroke-width:0.7531;stroke-linecap:round;stroke-linejoin:round;stroke-miterlimit:10;" d="
					M174.712,271.106c-1.394,0.592-9.424,2.656-10.849,2.199c-2.502-0.803-4.76-2.514-7.194-3.321"/>
			</g>
			<path style="fill:#DDB5B3;" d="M190.443,267.759c-1.227-3.739,2.882-11.434,3.767-13.736c0.63-1.639-0.043-3.764-2.109-3.257
				c-0.768,0.189-1.638,0.924-2.104,1.409c-1.548,1.607-4.155,5.858-5.369,7.803c-2.607,4.174-3.401,5.789-4.392,9.288"/>
		</g>
		<path style="fill:#62776F;" d="M182.399,287.096c1.504,0.66,3.031,3.974,3.954,5.379c3.569,5.434,7.362,10.634,10.877,16.124
			c6.188,9.665,31.439,39.331,38.27,43.582c4.501,2.801,10.042,4.435,15.371,4.361c3.405-0.047,7.005,0.456,9.085-3.777
			c2.041-4.154,2.373-8.794,3.096-13.287c0.392-2.433,0.693-4.922,0.428-7.272c-1.188-10.53-10.473-16.568-16.963-22.12
			c-9.801-8.384-19.895-16.244-29.958-24.227c-4.723-3.747-10.257-6.125-14.635-10.297c-1.495-1.425-2.689-2.466-4.498-3.369
			c-2.408-1.202-2.87-0.886-5.377,1.165C187.838,276.802,184.515,279.755,182.399,287.096z"/>
	</g>
	<g>
		<path style="fill:#6074A0;" d="M596.087,221.755c-5.583-1.804-17.421,0.647-21.61,3.165c-6.007,3.611-44.788,74.516-45.692,81.117
			c-0.346,2.532,18.801-6.452,18.52-3.924c9.109-2.926,21.356-10.755,27.171-18.754"/>
		<path style="fill:#EAE7DA;" d="M596.087,221.755c0,0-6.09,0.424-9.09,0.924c-1.621,4.762-2.485,13.28-3.361,18.299
			c-2.973,17.032,2.914,29.346,1.836,46.682c-1.222,19.653-0.358,48.274-0.355,67.979c0.001,5.676-7.835,2.75-2.839,5.377
			c5.574,2.931,11.877,3.782,17.885,4.865c20.038,3.613,41.406,3.132,61.669,1.886c15.72-0.967,30.86-6.161,46.218-8.404
			c0.217-6.541,0.08-13.162,0.043-19.712c-0.072-12.602-4.053-24.469-5.277-36.938c-1.807-18.41-6.197-36.567-10.051-54.516
			c-1.572-7.323-4.136-14.329-5.692-21.651c-0.836-3.936-0.395-4.169-4.071-4.97c-4.439-0.967-8.89-1.267-13.371-1.502
			c-10.339-0.543-67.174-1.161-77.441-0.124"/>
		<g>
			<g>
				<g>
					<g>
						<g>
							<path style="fill:#C18B80;" d="M693.459,166.245c-0.372,1.04-0.977,1.961-1.647,2.8c-2.803,3.511-6.89,5.741-11.133,6.076
								c-0.302-6.513-2.69-18.939,3.631-23.039C691.506,147.415,695.498,160.546,693.459,166.245z"/>
							<path style="fill:#B58686;" d="M688.349,166.307c-0.231,0.645-0.605,1.215-1.02,1.735c-1.737,2.174-4.268,3.556-6.896,3.763
								c-0.187-4.034-1.666-11.731,2.25-14.271C687.139,154.643,689.613,162.777,688.349,166.307z"/>
						</g>
						<g>
							<path style="fill:#C18B80;" d="M585.854,169.034c0.426,1.02,1.078,1.908,1.79,2.711c2.982,3.361,7.178,5.376,11.433,5.491
								c-0.036-6.52,1.705-19.053-4.82-22.82C586.83,150.127,583.523,163.447,585.854,169.034z"/>
							<path style="fill:#B58686;" d="M590.961,168.831c0.264,0.632,0.667,1.182,1.109,1.679c1.847,2.082,4.446,3.33,7.082,3.402
								c-0.022-4.039,1.056-11.802-2.985-14.136C591.565,157.119,589.517,165.37,590.961,168.831z"/>
						</g>
						<path style="fill:#CEA297;" d="M683.317,163.27c-0.416,17.645,1.756,29.595-14.118,38.278
							c-4.316,2.361-20.036,4.229-25.628,4.125c-13.814-0.258-34.718-0.961-41.135-9.303c-6.417-8.343-6.028-19.465-8.043-32.397
							c-2.107-13.525-4.955-27.077-1.29-40.408c1.287-4.682,3.298-9.4,7.343-13.139c4.146-3.832,10.106-6.339,16.185-8.247
							c10.456-3.282,19.965-3.213,31.244-3.37c7.957-0.111,22.851,3.308,28.783,7.999c5.383,4.256,6.632,12.03,6.867,17.737
							C683.937,134.469,683.552,153.273,683.317,163.27z"/>
						<path style="fill:#C18B80;" d="M649.493,168.229c0.315,1.291,0.491,2.816-0.887,3.738c-1.203,0.805-3.073,0.788-4.724,0.718
							c0.328-2.938,0.463-14.704,1.155-17.41C647.325,159.325,648.446,163.94,649.493,168.229z"/>
						<path style="fill:#C18B80;" d="M603.375,171.712c0.141,5.445,4.978,9.736,10.803,9.585
							c5.825-0.151,10.433-4.687,10.292-10.132c-0.141-5.445-4.978-9.736-10.803-9.585
							C607.841,161.731,603.233,166.267,603.375,171.712z"/>
						<path style="fill:#C18B80;" d="M659.407,170.26c0.141,5.445,4.977,9.736,10.803,9.585c5.825-0.151,10.433-4.687,10.292-10.132
							c-0.141-5.445-4.978-9.736-10.803-9.585C663.873,160.279,659.266,164.815,659.407,170.26z"/>
					</g>
				</g>
				
					<path style="fill:none;stroke:#968181;stroke-width:1.6623;stroke-linecap:round;stroke-linejoin:round;stroke-miterlimit:10;" d="
					M623.899,139.644c-0.968-0.754-2.736-0.711-3.982-0.58c-1.456,0.152-3.785,1.268-3.785,1.268"/>
				
					<path style="fill:none;stroke:#968181;stroke-width:1.6623;stroke-linecap:round;stroke-linejoin:round;stroke-miterlimit:10;" d="
					M660.749,138.689c0.927-0.803,2.695-0.851,3.946-0.786c1.462,0.077,3.846,1.07,3.846,1.07"/>
			</g>
			<path style="fill:#FFE9E9;" d="M628.956,175.602c-1.993,12.462,10.531,14.083,14.837,14.487c5.544,0.52,12.95-0.383,14.93-8.377
				C652.598,179.201,628.956,175.602,628.956,175.602z"/>
			<path style="fill:#CEA297;" d="M628.336,202.012c0,4.732-0.27,9.545,0,14.267c0.068,1.187-0.055,5.835,0.733,6.785
				c2.464,2.97,11.559,1.484,15.233,1.484c4.828,0,7.8,1.528,8.072-3.805c0.334-6.538-0.086-13.611-0.428-20.178
				c-4.709-0.553-9.464-0.426-14.221-0.431"/>
		</g>
		<path style="fill:#CEA297;" d="M620.639,220.075c12.585-0.588,26.07-0.125,38.725,0.313c3.384,11.41-9.57,28.807-19.428,28.807
			C637.004,249.194,619.15,225.93,620.639,220.075z"/>
		<path style="fill:#6074A0;" d="M620.99,218.812c-0.507,17.222,7.55,82.203,7.671,97.008c0.121,14.819,1.63,40.739,1.277,55.567
			c-11.067,0.957-43.657-1.502-50.963-12.375c-0.211-6.503,0.882-13.586,1.257-20.131c0.946-16.505,0.694-33.064,0.694-49.628
			c0-20.436-1.636-41.643,2.323-61.785c0.457-2.323,0.906-4.636,2.655-5.651c2.749-1.594,9.63-1.619,12.688-1.912
			C606.365,219.163,613.835,218.812,620.99,218.812z"/>
		<path style="fill:#6074A0;" d="M656.906,219.797c0.507,17.222,1.464,136.952,1.817,151.779
			c11.067,0.957,54.638-4.388,54.263-10.933c-0.945-16.505-8.531-48.177-8.531-64.741c0-20.436-5.85-47.307-9.81-67.449
			c-0.457-2.323-0.906-4.636-2.655-5.651c-2.749-1.594-9.63-1.619-12.688-1.912C671.532,220.148,664.061,219.797,656.906,219.797z"
			/>
		<g>
			<path style="fill:#F2B95F;" d="M668.508,208.733c0,2.013-1.006,5.921-1.561,7.829c-0.555,1.907-1.613,1.834-3.667,2.037
				c-7.707,0.761-15.237,1.688-22.976,1.385c-6.907-0.27-16.468-0.618-23.348-1.533c-2.365-0.315-3.215-3.24-3.922-5.605
				c1.769-0.461,3.809-0.261,5.641-0.268c4.673-0.018,9.319,0.584,13.989,0.694c4.417,0.104,8.844-0.004,13.263,0.012
				c2.506,0.009,4.993-0.523,7.471-0.42"/>
			<path style="fill:#5B411F;" d="M620.028,213.562c2.907,1.02,7.217,0.854,10.321,1.118c3.814,0.325,7.569,0.418,11.414,0.418
				c5.503,0,11.244,0.416,16.663-0.489c2.64-0.441,5.563-0.672,7.888-1.839c1.068-0.536,1.54-0.882,1.823-1.987
				c0.321-1.251,0.441-3.322,0.331-4.613c-2.113-0.115-4.457,0.689-6.614,0.813c-2.826,0.163-5.68,0.383-8.508,0.44
				c-5.747,0.116-11.507,0.755-17.242,0.7c-5.431-0.053-10.86-0.581-16.283-0.705c-1.298-0.03-4.031-0.022-4.931-0.848
				c-0.049,1.36-0.808,3.184-0.387,4.475C615.051,212.729,616.808,213.173,620.028,213.562z"/>
			<path style="fill:#9DB537;" d="M667.082,203.23c1.765,1.032,3.639,2.362,3.037,4.713c-1.597,0.5-3.539,0.644-4.808-0.656
				c-0.685,3.565-3.388,4.604-5.808,1.281c-2.464,2.38-7.951,8.701-9.497,2.481c-2.759,3.259-4.843,0.925-7.005-1.375
				c-1.947,2.693-5.1,3.303-6.962,0.607c-2.274,2.571-7.299,4.355-9.179,0.498c-5.184,1.86-7.755,4.125-10.608-1.976
				c-3.109,0.984-5.035,2.857-6.627,0.141c-0.876-1.494-0.912-3.27,0.254-4.543c1.544-1.686,4.38-1.159,6.377-1.173
				c10.204-0.073,20.635-2.299,30.72-3.91"/>
			<path style="fill:#FFDB45;" d="M632.594,205.882c2.388,2.004,5.159,4.282,7.847,5.852c0.275,0.16,0.718,0.742,1.055,0.746
				c0.917,0.01,2.792-2.103,3.467-2.549c1.783-1.178,4.815-2.194,6.126-3.938c0.324-0.431,0.314-1.059,0.697-1.5
				c-2.329-1.3-6.659-0.426-9.292-0.426c-1.764,0-3.528,0-5.293,0C635.673,204.067,633.432,203.684,632.594,205.882z"/>
			<path style="fill:#C1452D;" d="M620.586,203.848c3.557,3.329,7.239,3.619,11.871,3.63c2.02,0.005,6.256-0.673,6.831-2.911
				c-4.392-0.049-9.04-0.051-13.415-0.503C624.165,203.888,622.522,203.343,620.586,203.848z"/>
			<path style="fill:#C1452D;" d="M644.477,205.483c4.065,2.686,7.743,2.355,12.312,1.591c1.992-0.333,6.055-1.711,6.247-4.015
				c-4.339,0.687-8.921,1.464-13.31,1.752C648.011,204.923,646.3,204.661,644.477,205.483z"/>
			<path style="fill:#5B411F;" d="M620.028,203.927c2.907,1.02,7.217,0.854,10.321,1.118c3.814,0.325,7.569,0.417,11.414,0.417
				c5.503,0,11.244,0.416,16.663-0.489c2.64-0.441,5.563-0.672,7.888-1.839c1.068-0.536,1.54-0.882,1.823-1.987
				c0.321-1.251,0.441-3.322,0.331-4.613c-2.113-0.115-4.457,0.689-6.614,0.813c-2.826,0.163-5.68,0.383-8.508,0.44
				c-5.747,0.116-11.507,0.755-17.242,0.7c-5.431-0.053-10.86-0.581-16.283-0.705c-1.298-0.03-4.031-0.022-4.931-0.848
				c-0.049,1.36-0.808,3.184-0.387,4.475C615.051,203.094,616.808,203.538,620.028,203.927z"/>
			<path style="fill:#9DB537;" d="M667.082,193.595c1.765,1.032,3.639,2.362,3.037,4.713c-1.597,0.5-3.539,0.644-4.808-0.656
				c-0.685,3.565-3.388,4.605-5.808,1.281c-2.464,2.38-7.951,8.701-9.497,2.482c-2.759,3.259-4.843,0.925-7.005-1.375
				c-1.947,2.693-5.1,3.303-6.962,0.607c-2.274,2.571-7.299,4.355-9.179,0.498c-5.184,1.86-7.755,4.125-10.608-1.976
				c-3.109,0.984-5.035,2.857-6.627,0.141c-0.876-1.495-0.912-3.27,0.254-4.543c1.544-1.686,4.38-1.159,6.377-1.173
				c10.204-0.073,20.635-2.299,30.72-3.91"/>
			<path style="fill:#F2B95F;" d="M610.996,191.659c0.066-4.324,8.2-7.628,11.692-8.453c4.46-1.054,8.7-1.608,13.303-1.6
				c8.564,0.015,16.654-0.706,24.628,2.507c3.636,1.465,14.207,8.539,5.862,10.924c-11.76,3.36-26.592,1.928-38.896,1.928
				C622.944,196.965,611.844,198.146,610.996,191.659z"/>
		</g>
		<g>
			<path style="fill:#BC8E86;" d="M586.281,230.291c0.277-3.739,4.261-12.494,5.183-16.166c0.328-1.305,0.436-3.794,1.097-5.056
				c3.189-6.081,9.805-12.175,14.957-15.007c3.983-0.213,7.76-1.942,11.784-1.838c3.078,0.079,6.263,0.298,9.301,0.921
				c0.065,1.215-0.949,1.862-1.569,2.001c1.334,0.252,6.912-0.474,7.422,1.274c0.589,2.02-3.995,2.982-5.01,3.608
				c1.001,0.219,2.128,0.33,3.085,0.607c0.487,4.467-5.479,1.819-8.246,4.523c3.393-0.402,8.046,1.221,6.499,2.234
				c0.277,2.084-8.194,2.364-9.734,3.227c-4.123,2.312-6.564,7.367-9.327,11.209c-2.206,3.068-3.595,7.61-6.175,10.596
				c-3.592,4.157-9.063,6.12-12.705,1.35"/>
			
				<path style="fill:none;stroke:#A88080;stroke-width:0.7512;stroke-linecap:round;stroke-linejoin:round;stroke-miterlimit:10;" d="
				M603.615,202.512c1.36-0.951,1.006-1.763,2.093-2.969c0.577-0.64,1.914-1.582,2.195-2.267c1.978-0.685,3.817-1.667,6.101-1.766
				c3.871-0.168,7.945-1.198,11.878-0.871"/>
			
				<path style="fill:none;stroke:#A88080;stroke-width:0.7512;stroke-linecap:round;stroke-linejoin:round;stroke-miterlimit:10;" d="
				M608.958,204.354c0.595-0.761,1.593-1.164,2.315-1.884c0.942-0.939,1.622-1.569,2.927-2.039
				c4.077-1.472,8.715-1.035,12.949-0.788"/>
			
				<path style="fill:none;stroke:#A88080;stroke-width:0.7512;stroke-linecap:round;stroke-linejoin:round;stroke-miterlimit:10;" d="
				M612.138,209.268c0.853-1.247,2.873-2.652,4.316-3.033c2.534-0.67,5.351-0.445,7.831-1.075"/>
		</g>
		<path style="fill:#728AB5;" d="M585.708,225.72c-0.446,2.114-3.69,5.02-5.021,6.604c-5.143,6.127-10.001,12.473-15.213,18.547
			c-9.174,10.693-36.29,51.522-39.64,61.485c-2.207,6.564-3.009,14.124-2.042,20.923c0.617,4.344,0.686,9.096,5.503,10.543
			c4.727,1.419,9.681,0.513,14.547,0.148c2.634-0.197,5.313-0.526,7.75-1.54c10.921-4.542,15.748-18.158,20.529-28.057
			c7.219-14.95,13.836-30.124,20.588-45.293c3.169-7.12,4.758-14.884,8.434-21.684c1.255-2.322,2.155-4.149,2.807-6.724
			c0.868-3.426,0.457-3.928-2.127-6.547C597.485,229.726,593.813,226.321,585.708,225.72z"/>
		<path style="fill:#6074A0;" d="M688.135,221.755c5.583-1.804,17.421,0.647,21.61,3.165c6.007,3.611,44.788,74.516,45.692,81.117
			c0.346,2.532-18.801-6.452-18.52-3.924c-9.109-2.926-21.356-10.755-27.172-18.754"/>
		<g>
			<path style="fill:#BC8E86;" d="M697.94,230.291c-0.277-3.739-4.261-12.494-5.182-16.166c-0.328-1.305-0.436-3.794-1.097-5.056
				c-3.189-6.081-9.805-12.175-14.957-15.007c-3.983-0.213-7.76-1.942-11.784-1.838c-3.078,0.079-6.263,0.298-9.301,0.921
				c-0.064,1.215,0.949,1.862,1.569,2.001c-1.334,0.252-6.912-0.474-7.422,1.274c-0.589,2.02,3.995,2.982,5.01,3.608
				c-1.001,0.219-2.128,0.33-3.086,0.607c-0.487,4.467,5.479,1.819,8.246,4.523c-3.394-0.402-8.046,1.221-6.499,2.234
				c-0.277,2.084,8.194,2.364,9.734,3.227c4.122,2.312,6.564,7.367,9.327,11.209c2.206,3.068,3.595,7.61,6.175,10.596
				c3.592,4.157,9.063,6.12,12.705,1.35"/>
			
				<path style="fill:none;stroke:#A88080;stroke-width:0.7512;stroke-linecap:round;stroke-linejoin:round;stroke-miterlimit:10;" d="
				M680.606,202.512c-1.36-0.951-1.006-1.763-2.093-2.969c-0.577-0.64-1.915-1.582-2.195-2.267c-1.978-0.685-3.817-1.667-6.1-1.766
				c-3.871-0.168-7.945-1.198-11.878-0.871"/>
			
				<path style="fill:none;stroke:#A88080;stroke-width:0.7512;stroke-linecap:round;stroke-linejoin:round;stroke-miterlimit:10;" d="
				M675.263,204.354c-0.595-0.761-1.593-1.164-2.315-1.884c-0.942-0.939-1.622-1.569-2.927-2.039
				c-4.077-1.472-8.715-1.035-12.949-0.788"/>
			
				<path style="fill:none;stroke:#A88080;stroke-width:0.7512;stroke-linecap:round;stroke-linejoin:round;stroke-miterlimit:10;" d="
				M672.083,209.268c-0.853-1.247-2.872-2.652-4.316-3.033c-2.534-0.67-5.351-0.445-7.831-1.075"/>
		</g>
		<path style="fill:#728AB5;" d="M698.513,225.72c0.446,2.114,3.69,5.02,5.02,6.604c5.143,6.127,10.002,12.473,15.213,18.547
			c9.174,10.693,36.29,51.522,39.64,61.485c2.207,6.564,3.009,14.124,2.042,20.923c-0.617,4.344-0.686,9.096-5.503,10.543
			c-4.727,1.419-9.681,0.513-14.547,0.148c-2.635-0.197-5.313-0.526-7.75-1.54c-10.921-4.542-15.748-18.158-20.529-28.057
			c-7.219-14.95-13.836-30.124-20.588-45.293c-3.169-7.12-4.758-14.884-8.434-21.684c-1.255-2.322-2.155-4.149-2.807-6.724
			c-0.868-3.426-0.457-3.928,2.127-6.547C686.737,229.726,690.409,226.321,698.513,225.72z"/>
		
			<path style="fill:none;stroke:#515B6B;stroke-width:1.4022;stroke-linecap:round;stroke-linejoin:round;stroke-miterlimit:10;" d="
			M616.501,153.376c-0.385,2.495,3.474,3.681,5.354,3.514c2.571-0.228,4.495-1.615,4.495-4.349"/>
		
			<path style="fill:none;stroke:#515B6B;stroke-width:1.4022;stroke-linecap:round;stroke-linejoin:round;stroke-miterlimit:10;" d="
			M659.734,153.077c-0.385,2.495,3.474,3.681,5.354,3.514c2.571-0.228,4.495-1.615,4.495-4.349"/>
		<path style="fill:#515B6B;" d="M658.568,114.647c1.528,10.315-25.829,22.563-27.508,13.066c-0.27-0.129-0.539-0.134-0.808-0.017
			c-1.721,3.358-5.017,5.413-8.572,6.693c-2.765,0.996-12.779,3.177-14.235-0.691c-3.506,2.204-4.256,4.791-8.737,5.737
			c-3.29,0.695-6.911,0.839-10.4,0.586c-5.909-0.429-9.735-6.038-4.55-11.026c-2.129-2.931-6.284-3.345-8.164-6.795
			c-2.873-5.274-4.473-15.717-0.475-20.729c2.279-2.857,6.818-7.22,10.363-8.487c0.853-0.305,3.572,0.085,4.127-0.347
			c1.389-1.081,0.321-2.336,1.002-3.922c0.924-2.15,3.867-4.565,5.797-5.939c5.048-3.591,11.723-4.742,17.714-5.808
			c2.416-0.43,4.948-0.387,7.398-0.381c4.152,0.009,8.304,0,12.456,0c2.326,0,5.979-0.743,8.29,0
			c2.414,0.776,5.09,2.633,7.669,3.803c3.965,1.8,7.102,3.429,9.001,7.647C661.288,93.265,666.058,112.267,658.568,114.647z"/>
		<path style="fill:#515B6B;" d="M660.237,107.636c-0.277,6.616,2.754,14.916,10.307,15.395c0.396,8.06-0.078,15.793,8.257,20.186
			c8.096,4.267,9.843-3.585,10.823-10.241c0.688-4.675,1.627-11.093,0.511-15.724c-0.492-2.041-3.837-4.603-3.887-6.263
			c-0.051-1.709,2.275-2.949,2.758-4.605c0.429-1.47,0.119-4.608-0.351-6.027c-1.766-5.336-7.115-9.31-11.426-12.503
			c-5.498-4.071-19.124-8.887-24.337-1.92"/>
		<path style="fill:#515B6B;" d="M585.452,134.679c-0.34,5.839,2.451,13.784,4.732,18.972c1.16,0.086,2.397,0.094,3.564,0.024
			c-0.135-6.451,1.052-13.066,1.052-19.663"/>
	</g>
	<g>
		<path style="fill:#F2E6B1;" d="M340.131,140.765c1.313,6.207-7.712,10.407-12.254,12.462c-2.726,1.234-6.929,2.407-8.08,5.456
			c-1.389,3.682,1.606,4.25,2.87,6.788c0.697,1.401,1.585,0.083,1.308,1.953c-0.145,0.975-2.837,2.277-3.528,3.02
			c-1.397,1.503-2.827,3.372-3.414,5.411c-2.339,8.12,1.669,14.218,10.264,13.464c0.775,6.674-0.668,12.599,2.678,18.936
			c3.653,6.919,11.289,13.066,19.6,12.074c5.21-0.622,3.883-1.026,8.807,3.077c6.694,5.577,13.259,8.408,22.012,8.163
			c3.612-0.101,7.046-0.06,10.288-1.552c2.364-1.088,4.339-3.95,6.667-4.802c5.037-1.844,9.019,4.471,13.834,6.556
			c7.569,3.278,25.054,3.555,27.357-6.926c8.957-0.519,14.411,0.492,19.992-8.019c4.304-6.564,3.794-13.347-0.229-19.518
			c6.295-5.871,10.674-15.959,7.448-24.729c-1.318-3.582-4.643-3.927-6.207-6.553c-1.358-2.28,0.375-3.441,1.304-6.134
			c2.079-6.033-0.237-10.796-4.706-15.125c-5.283-5.117-16.733-8.893-18.85-16.347"/>
		<g>
			<g>
				<g>
					<g>
						<g>
							<g>
								<g>
									<path style="fill:#E2B7AA;" d="M337.572,164.128c0.453,1.038,1.144,1.943,1.9,2.762c3.162,3.428,7.604,5.495,12.103,5.63
										c-0.055-6.624,1.751-19.348-5.158-23.205C338.553,144.925,335.092,158.442,337.572,164.128z"/>
									<path style="fill:#DDAA9E;" d="M342.971,163.945c0.281,0.643,0.709,1.203,1.177,1.711c1.959,2.123,4.71,3.404,7.497,3.488
										c-0.034-4.103,1.085-11.985-3.195-14.374C343.578,152.05,341.434,160.423,342.971,163.945z"/>
								</g>
								<g>
									<path style="fill:#E2B7AA;" d="M451.34,161.781c-0.391,1.055-1.028,1.988-1.734,2.837
										c-2.955,3.554-7.269,5.801-11.755,6.122c-0.337-6.618-2.896-19.253,3.777-23.39C449.223,142.642,453.48,156,451.34,161.781
										z"/>
									<path style="fill:#DDAA9E;" d="M445.937,161.821c-0.242,0.654-0.637,1.231-1.074,1.757
										c-1.83,2.201-4.503,3.594-7.281,3.793c-0.209-4.1-1.794-11.926,2.34-14.488
										C444.626,149.965,447.263,158.24,445.937,161.821z"/>
								</g>
								<path style="fill:#E2B7AA;" d="M406.689,198.879c-0.003,8.449,0.595,16.833,0.613,25.251
									c-7.207,0.327-15.184,0.667-22.367-0.096c-1.352-8.66-0.306-18.379-0.243-27.152c10.825-1.783,23.823-0.206,34.82-0.206"/>
								<path style="fill:#EACCC1;" d="M348.109,160.621c1.453,17.886-0.153,30.117,17.105,38.165
									c4.692,2.188,21.397,3.328,27.295,2.953c14.57-0.926,36.599-2.645,42.894-11.419c6.295-8.774,5.246-20.042,6.63-33.263
									c1.448-13.826,0.994-33.767-3.642-47.118c-1.628-4.689-1.341-3.329-5.827-6.929c-4.597-3.689-11.034-5.946-17.562-7.59
									c-11.228-2.827-21.263-2.299-33.181-1.917c-8.407,0.27-23.936,4.456-29.929,9.502c-5.438,4.578-6.31,12.527-6.231,18.33
									C345.8,131.423,347.286,150.487,348.109,160.621z"/>
								<path style="fill:#E2B7AA;" d="M384.105,164.026c-0.259,1.325-0.356,2.881,1.152,3.75c1.317,0.759,3.29,0.652,5.029,0.502
									c-0.515-2.966-1.334-14.9-2.22-17.612C385.882,154.885,384.964,159.623,384.105,164.026z"/>
								<path style="fill:#DDAA9E;" d="M432.996,165.342c0.164,5.532-4.696,10.12-10.854,10.247
									c-6.159,0.127-11.284-4.255-11.449-9.786c-0.164-5.532,4.696-10.12,10.855-10.247
									C427.706,155.428,432.832,159.81,432.996,165.342z"/>
								<path style="fill:#DDAA9E;" d="M373.755,166.564c0.164,5.532-4.695,10.119-10.855,10.246
									c-6.158,0.127-11.284-4.255-11.448-9.786c-0.164-5.532,4.696-10.12,10.855-10.247
									C368.466,156.65,373.591,161.032,373.755,166.564z"/>
								<path style="fill:#2E3644;" d="M409.878,147.082c0.051,1.729,1.654,3.1,3.58,3.06c1.926-0.04,3.445-1.474,3.394-3.204
									c-0.051-1.73-1.654-3.1-3.58-3.06C411.346,143.917,409.826,145.352,409.878,147.082z"/>
								<path style="fill:#2E3644;" d="M363.991,148.028c0.051,1.73,1.654,3.1,3.58,3.06c1.926-0.04,3.446-1.474,3.394-3.204
									c-0.051-1.73-1.654-3.1-3.58-3.06C365.46,144.864,363.94,146.298,363.991,148.028z"/>
							</g>
						</g>
						
							<path style="fill:none;stroke:#564C4B;stroke-width:1.3741;stroke-linecap:round;stroke-linejoin:round;stroke-miterlimit:10;" d="
							M409.366,135.128c0.978-0.812,2.847-0.853,4.171-0.78c1.547,0.084,4.069,1.105,4.069,1.105"/>
						
							<path style="fill:none;stroke:#564C4B;stroke-width:1.3741;stroke-linecap:round;stroke-linejoin:round;stroke-miterlimit:10;" d="
							M370.407,135.932c-1.025-0.771-2.895-0.734-4.212-0.607c-1.539,0.148-3.999,1.271-3.999,1.271"/>
					</g>
				</g>
			</g>
			<path style="fill:#BA705A;" d="M375.04,178.187c8.449-1.647,23.867-4.581,29.736-3.887c1.195,9.214-8.813,13.955-16.27,13.637
				C382.333,187.674,377.482,184.146,375.04,178.187z"/>
			<path style="fill:#E2B7AA;" d="M440.089,215.275c6.204,0,12.635,1.628,15.202,7.598c2.891,6.723,4.739,12.737,6.39,20.13
				c4.156,18.617,4.352,38.702,10.673,56.444c1.195,3.354,2.28,6.764,3.154,10.202c0.976,3.839,3.409,8.609,3.145,12.234
				c-8.103,0.438-17.383,2.454-22.55-4.031c-4.536-5.694-9.496-10.953-13.833-17.398c-8.187-12.164-11.476-25.483-11.748-40.18
				c-0.174-9.374,1.074-18.86,2.195-28.148c0.735-6.094,0.427-8.238,4.373-13.166"/>
			<path style="fill:#E2B7AA;" d="M364.051,208.93c-6.204,0-12.635,1.628-15.202,7.598c-2.891,6.723-37.52,93.016-38.394,96.454
				c-0.976,3.839-4.038,9.541,15.033,2.556c8.103,0.438,47.858-46.913,48.131-61.609c0.174-9.374-1.074-18.86-2.195-28.148
				c-0.735-6.094-0.427-8.238-4.373-13.166"/>
			<path style="fill:#B24747;" d="M414.727,213.768c7.81,0.511,22.068,1.216,29.764,1.822c3.276,30.322-7.277,69.564-7.381,100.117
				c-0.038,11.081,8.849,37.367,8.92,43.432c-13.03,6.475-31.586,8.599-51.819,8.599c-12.311,0-33.102-4.192-45.239-5.921
				c-0.615-4.264,3.236-8.62,4.946-12.252c1.905-4.047,2.829-9.353,3.469-13.814c1.228-8.559,3.026-19.035,0.716-27.465
				c-5.565-20.31-13.41-38.902-10.3-60.961c1.245-8.832,5.503-16.466,9.508-24.461c3.717-7.422,6.194-5.91,14.412-5.91"/>
			<path style="fill:#E2B7AA;" d="M378.376,215.091c3.195,2.901,12.327,36.128,14.007,39.724
				c8.998-6.772,24.558-36.284,23.749-41.224C404.079,212.771,390.227,212.059,378.376,215.091z"/>
			<g>
				<g>
					<path style="fill:#3F4F49;" d="M404.659,200.431c-0.55-4.331-4.227-7.668-8.59-7.807c-7.55-0.241-15.628-2.324-23-1.791
						c-6.516,0.471-8.146,1.504-9.657,8.735c-2.604,12.466-3.361,25.774-4.799,38.429c-0.527,4.635-3.589,15.719,0.053,18.861
						c3.759,3.243,11.711,3.414,16.462,3.915c5.158,0.544,10.314,1.14,15.477,1.632c4.77,0.455,5.782,0.086,7.527-4.183
						C401.84,249.147,405.828,209.641,404.659,200.431z"/>
					<path style="fill:#CCBAB6;" d="M400.547,198.98c-1.462-0.598-2.474-1.874-4.065-2.478c-1.445-0.549-2.977-0.904-4.49-1.216
						c-3.067-0.632-6.242-0.806-9.357-1.135c-3.77-0.398-9.848-1.984-13.044-0.026c-0.925,0.566-2.271,1.544-2.53,2.576
						c-0.58,2.309,2.413,2.694,4.146,3.141c7.316,1.891,15.204,2.545,22.742,3.34C398.121,203.624,400.551,204.329,400.547,198.98z"
						/>
					<g>
						<path style="fill:none;" d="M398.217,199.846c-1.619-0.567-3.331-0.942-5.023-1.273c-3.429-0.67-6.972-0.883-10.451-1.25
							c-4.21-0.444-11.009-2.106-14.549-0.184c-0.331,0.18-0.706,0.413-1.077,0.666c-0.115-0.313-0.164-0.664-0.054-1.103
							c0.259-1.032,1.605-2.009,2.53-2.576c3.196-1.958,9.274-0.372,13.044,0.026c3.115,0.329,6.29,0.503,9.357,1.135
							c1.513,0.312,3.045,0.667,4.49,1.216c1.59,0.604,2.602,1.88,4.065,2.478c0.001,0.811-0.061,1.468-0.17,2.023
							C399.717,200.565,399.036,200.133,398.217,199.846z"/>
						<path style="fill:#E28661;" d="M382.742,197.324c3.479,0.367,7.022,0.58,10.451,1.25c1.692,0.331,3.405,0.705,5.023,1.273
							c0.82,0.287,1.5,0.719,2.16,1.158c-0.61,3.103-2.889,2.553-6.428,2.18c-7.538-0.795-15.425-1.45-22.742-3.34
							c-1.403-0.363-3.603-0.702-4.091-2.038c0.372-0.253,0.746-0.486,1.077-0.666C371.733,195.218,378.533,196.88,382.742,197.324z
							"/>
					</g>
					<path style="fill:#4F6D61;" d="M400.32,216.006c-0.474-0.261-1.228-0.424-1.885-0.416c-1.022,5.481-1.729,11.034-2.16,16.62
						c1.548,0.586,1.555,0.51,2.253-0.655c1.286-2.147,1.123-6.054,1.448-8.467C400.213,221.323,401.038,217.974,400.32,216.006z"/>
					<path style="fill:#3F4F49;" d="M402.25,206.866c3.785,1.292,7.73,0.929,11.481,2.847c5.502,2.814,5.547,8.957,5.512,14.733
						c-0.032,5.281-1.053,10.45-1.308,15.718c-0.119,2.471,0.232,5.985-0.972,8.256c-2.744,5.176-15.296,4.297-19.715,4.063
						c-0.087-1.723-0.004-3.486-0.075-5.223c4.842-0.18,9.658-1.419,14.38-2.426c0.734-0.157,1.869,0.298,2.391-0.26
						c1.222-1.31,0.786-4.484,0.784-6.035c-0.007-5.615,0.259-11.323-0.059-16.925c-0.284-5.002-0.53-6.005-5.176-8.059
						C406.546,212.252,402.124,212.455,402.25,206.866z"/>
				</g>
			</g>
		</g>
		<path style="fill:#F2E6B1;" d="M375.969,102.14c-0.481,7.063,4.013,17.718,9.655,22.217c2.665,2.125,6.65,3.074,9.806,4.153
			c12.609,4.308,24.726,11.708,38.677,10.264c3.37-0.349,8.949-0.39,11.07-3.663c2.387-3.683,1.789-12.877,1.314-17.063
			c-1.96-17.275-11.987-41.791-48.05-41.791c-6.234,0-14.37,2.269-20.358,3.942c-3.006,0.84-6.315,3.57-7.228,6.594
			C369.76,90.413,370.764,97.654,375.969,102.14z"/>
		<path style="fill:#F2E6B1;" d="M381.942,105.724c0.768,12.263-9.491,16.427-19.745,22.299
			c-4.957,2.839-9.316,19.019-14.993,20.525c-7.015,1.861-7.901-8.071-9.27-13.457c-4.181-16.452-4.944-42.851,13.659-50.856
			c9.04-3.89,16.174-4.063,23.181,2.375"/>
		<path style="fill:#B24747;" d="M345.662,121.335c0.018-8.109,11.309-18.286,17.737-20.608c10.509-3.797,25.626-4.912,36.914-3.386
			c6.07,0.821,11.081,3.123,16.173,6.604c4.399,3.006,8.633,7.862,12.881,10.01c1.224-7.741-9.142-16.149-14.969-19.569
			c-9.3-5.459-24.724-8.409-35.344-5.673c-6.821,1.757-17.509,0.65-27.301,10.326C347.276,103.462,342.222,112.792,345.662,121.335z
			"/>
		<g>
			<g>
				<path style="fill:#E2B7AA;" d="M422.54,242.494c1.035-5.509,0.986-13.276-0.859-18.662c-0.494-1.442-1.64-6.797-4.044-4.148
					c-1.355,1.494-0.668,6.682-0.908,8.818c-0.191,1.699-1.082,3.743-0.964,5.385c0.2,2.78,3.025,4.752,3.609,7.399"/>
				<path style="fill:#EACCC1;" d="M416.144,266.175c-4.766-1.239-18.617-7.024-22.695-9.529c-3.342-2.053-6.333-8.474-8.546-11.851
					c-2.781-4.243-4.951-8.667-6.936-13.391c-1.533-3.646-2.768-8.128-0.982-8.309c3.626-0.682,6.042,8.193,7.539,10.669
					c2.595,4.293,3.646,5.124,6.481,5.883c-2.089-5.948-3.856-10.832-7.317-18.727c-0.948-2.162-5.041-10.022-0.307-9.226
					c1.525,0.256,1.242,0.856,2.136,2.008c2.171,2.798,9.916,20.613,13.217,24.513c-2.105-8-10.688-21.035-14.22-28.391
					c-0.816-1.701-0.322-5.253,3.805-2.208c1.491,1.1,14.888,21.22,17.864,23.85c3.921-5.779-12.45-17.723-12.916-18.341
					c-3.215-4.266-2.375-8.253,1.027-5.92c1.298,0.89,22.162,18.197,22.881,20.248c2.222,6.339,9.518,25.755,10.535,34.611
					C425.781,263.714,418.126,264.319,416.144,266.175z"/>
			</g>
			<path style="fill:#EACCC1;" d="M412.603,263.808c10.868,14.287,32.79,62.526,38.436,71.571
				c1.689,2.705,25.621,13.929,28.165,6.628c3.005-8.623,2.114-23.125-3.315-31.589c-11.008-17.162-24.725-24.191-37.581-40.294
				c-3.662-4.587-7.411-9.036-11.22-13.464c-3.805-4.424-5.75-7.804-11.699-3.603"/>
		</g>
		<g>
			<g>
				<path style="fill:#E2B7AA;" d="M356.717,240.036c-1.356-4.974-1.885-12.099-0.592-17.172c0.346-1.358,1.001-6.353,3.401-4.102
					c1.353,1.269,1.107,6.077,1.484,8.017c0.3,1.544,1.269,3.352,1.282,4.866c0.022,2.563-2.422,4.581-2.762,7.05"/>
				<path style="fill:#EACCC1;" d="M364.332,261.273c4.277-1.488,16.548-7.816,20.102-10.414c2.912-2.13,5.179-8.237,6.959-11.496
					c2.236-4.096,3.898-8.312,5.369-12.789c1.136-3.456,1.937-7.657,0.286-7.69c-3.375-0.357-4.933,7.958-6.122,10.338
					c-2.062,4.127-2.963,4.967-5.506,5.873c1.475-5.607,2.734-10.215,5.324-17.71c0.709-2.052,3.88-9.56-0.401-8.481
					c-1.379,0.348-1.075,0.876-1.81,1.999c-1.783,2.726-7.567,19.631-10.305,23.451c1.339-7.49,8.243-20.075,10.937-27.08
					c0.623-1.619-0.094-4.839-3.652-1.742c-1.285,1.119-12.079,20.555-14.613,23.186c-4.022-5.008,10.104-17.169,10.485-17.769
					c2.632-4.149,1.567-7.742-1.38-5.351c-1.124,0.912-18.972,18.321-19.479,20.255c-1.569,5.976-6.822,24.315-7.099,32.51
					C355.316,259.729,362.378,259.717,364.332,261.273z"/>
			</g>
			<path style="fill:#EACCC1;" d="M367.404,258.841c-8.908,13.902-25.438,59.747-29.945,68.456
				c-1.348,2.605-22.459,14.664-25.331,8.158c-3.392-7.683-3.648-21.044,0.703-29.205c8.823-16.547,20.879-24.005,31.474-39.719
				c3.018-4.476,6.127-8.832,9.29-13.173c3.161-4.337,4.694-7.58,10.459-4.168"/>
		</g>
		<linearGradient id="SVGID_1_" gradientUnits="userSpaceOnUse" x1="399.9897" y1="158.078" x2="386.982" y2="207.1888">
			<stop  offset="0" style="stop-color:#FFFFFF;stop-opacity:0"/>
			<stop  offset="1" style="stop-color:#FFFFFF"/>
		</linearGradient>
		<path style="fill:url(#SVGID_1_);" d="M376.492,198.371c2.044,0.178,3.471-0.679,5.199-1.57
			c3.298-1.701,12.492-3.843,12.604-8.042c0.165-6.206-11.48-4.983-13.88-9.849c-2.059-4.175-1.361-6.817,2.993-8.082
			c5.511-1.6,12.007-1.641,16.529-5.265c3.42-2.741,6.353-5.704,5.416-10.35c-0.74-3.669-4.775-10.094-8.832-10.477
			c7.085,0.103,14.787,0.165,18.275,7.84c2.801,6.162,0.853,11.379-5.041,14.2c-3.342,1.6-21.576,4.202-16.671,11.564
			c1.278,1.918,4.704,2.146,6.363,3.827c2.408,2.44,2.887,4.868,3.066,8.244C403.088,201.27,385.405,203.638,376.492,198.371z"/>
	</g>
	<rect x="17.612" y="344.592" style="fill:#DBCEBF;" width="765" height="70.146"/>
	<g>
		<g>
			<ellipse style="fill:#E8E3D9;" cx="654.718" cy="367.737" rx="45.828" ry="12.25"/>
			<ellipse style="fill:#FFFAEE;" cx="655.485" cy="363.25" rx="56.685" ry="12.25"/>
		</g>
		<g>
			<path style="fill:#49453A;" d="M703.945,330.478c2.727-9.129,6.453-18.219,9.889-27.106c0.486-1.256,1.694-6.564,3.163-7.344
				c1.466-0.778,5.609,0.738,7.198,1.098c1.717,0.389,9.813,0.628,10.279,1.919c1.317,3.643-8.895,0.792-10.542,0.695
				c-1.172-0.069-3.224-1.074-4.23-0.769c-2.123,0.645-11.402,27.615-12.548,30.229
				C705.347,329.255,703.525,328.748,703.945,330.478z"/>
			<path style="fill:#CE4646;" d="M682.748,328.451c9.992,0,38.616,0.554,42.371-0.474c1.173,8.2-6.18,60.412-6.387,64.398
				c-9.195,0.615-18.872,0.886-27.91,0.522C689.729,380.802,682.617,331.843,682.748,328.451z"/>
			<g>
				<path style="fill:none;" d="M716.936,348.136c-5.185,4.487-6.959,10.096-2.012,15.154c2.709,2.77,4.977,5.597,4.466,9.681
					c-0.393,3.139-2.162,6.173-4.285,8.46c-2.241,2.415-4.206,3.644-7.13,5.104c-2.154,1.075-3.932,1.583-6.38,1.873
					c-2.154,0.255-4.175,0.744-6.293,1.251c-1.275,0.305-3.057,0.935-4.688,1.153c0.083,0.78,0.154,1.481,0.208,2.086
					c9.039,0.364,18.715,0.092,27.91-0.522c0.148-2.855,3.963-30.456,5.684-48.9C721.84,344.817,719.13,346.237,716.936,348.136z"/>
				<path style="fill:none;" d="M707.134,374.972c4.354-5.049-1.117-10.673-4.524-14.159c-5.194-5.315-1.269-10.187,3.45-14.47
					c3.011-2.733,5.41-6.11,8.527-8.686c1.28-1.058,2.492-1.717,4.085-2.232c1.729-0.559,3.216-1,4.853-1.815
					c0.595-0.296,1.066-0.635,1.668-0.763c0.085-2.176,0.071-3.858-0.074-4.87c-3.755,1.028-32.379,0.474-42.371,0.474
					c-0.104,2.676,4.302,33.721,6.703,52.642c3.428-0.206,6.767-1.219,10.072-2.142C702.29,378.178,705.199,377.215,707.134,374.972
					z"/>
				<path style="fill:#C9B273;" d="M701.595,388.407c2.448-0.289,4.226-0.798,6.38-1.873c2.924-1.459,4.889-2.689,7.13-5.104
					c2.122-2.287,3.892-5.321,4.285-8.46c0.511-4.084-1.757-6.911-4.466-9.681c-4.947-5.058-3.173-10.667,2.012-15.154
					c2.194-1.898,4.904-3.319,7.481-4.66c0.385-4.129,0.666-7.798,0.777-10.629c-0.602,0.129-1.073,0.467-1.668,0.763
					c-1.637,0.815-13.192,7.133-16.203,9.866c-4.719,4.283-9.906,12.022-4.712,17.337c3.407,3.486,8.878,9.11,4.524,14.159
					c-1.934,2.243-4.844,3.206-7.611,3.979c-3.304,0.923-6.644,1.936-10.072,2.142c0.49,3.858,0.896,7.212,1.163,9.718
					c1.632-0.218,3.414-0.848,4.688-1.153C697.421,389.151,699.441,388.661,701.595,388.407z"/>
			</g>
			<path style="fill:#F2EEE4;" d="M680.498,324.451c0.612,1.436,0.112,3.952,0.323,5.725c15.634,0.827,31.518-0.25,47.164-0.744
				c0.064-1.704,0.071-3.506-0.003-5.192C713.254,323.181,698.344,324.951,680.498,324.451z"/>
		</g>
	</g>
	<g>
		<g>
			<ellipse style="fill:#E8E3D9;" cx="360.499" cy="364.421" rx="45.828" ry="12.25"/>
			<ellipse style="fill:#FFFAEE;" cx="361.266" cy="359.934" rx="56.685" ry="12.25"/>
			<g>
				<path style="fill:#82613A;" d="M329.276,355.328c2.09-5.046,12.754-5.25,17.791-4.042c5.176,1.242,10.262,4.475,10.709,9.201
					c0.697,7.366-8.612,7.82-15.014,7.82c-4.538,0-8.553,0.21-11.28-2.921C329.07,362.616,326.776,360.647,329.276,355.328z"/>
				<path style="fill:#594734;" d="M337.025,358.408c-2.888-0.673-2.038-5.101,0.899-4.696c2.426,0.335,4.66,1.893,3.623,3.809
					C340.981,358.566,338.962,358.859,337.025,358.408z"/>
				<path style="fill:#594734;" d="M344.776,364.643c0.31-1.048,1.845-2.829,3.08-2.594c1.066,0.203,1.656,1.88,2.287,2.597
					c-1.161,1.166-4.085,0.375-5.367,0.164"/>
				<path style="fill:#594734;" d="M348.942,357.143c-1.497-1.949-2.243-0.2-2.307,1.308c0.962,0.057,3.326,0.416,3.14-1.142"/>
				<path style="fill:#594734;" d="M354.942,358.809c-1.745-0.075-3.425,0.584-5.153,0.518c-0.43,1.708,2.461,4.714,4.152,4.649
					c2.081-0.08,2.663-3.718,2.001-5.167"/>
				<path style="fill:#594734;" d="M333.942,359.809c-0.811-0.117-1.582-0.499-2.332-0.832c-0.29,2.194,2.727,3.668,2.999,1.332"/>
				<path style="fill:#594734;" d="M342.276,361.309c-0.508-0.657-2.038,0.405-1.974,1.304c1.005,0.723,2.044-0.083,1.808-1.304"/>
				<path style="fill:#594734;" d="M347.109,354.143c-0.145-0.893-1.101-1.623-1.975-1.65c-0.091,0.473-0.082,1.157-0.009,1.629
					c0.748,0.332,1.625,0.618,1.984-0.313"/>
			</g>
			<g>
				<path style="fill:#936C41;" d="M390.131,346.509c-2.09-5.046-12.754-5.25-17.791-4.042c-5.176,1.241-10.262,4.475-10.709,9.201
					c-0.697,7.365,8.612,7.82,15.014,7.82c4.538,0,8.553,0.21,11.28-2.921C390.336,353.797,392.631,351.828,390.131,346.509z"/>
				<path style="fill:#594734;" d="M370.172,351.888c0.401-1.978-4.077-4.298-4.748-2.461c-0.554,1.517,0.113,3.698,2.291,4.341
					C368.904,354.119,369.903,353.215,370.172,351.888z"/>
				<path style="fill:#594734;" d="M374.631,355.824c-0.31-1.048-1.845-2.829-3.08-2.594c-1.066,0.203-1.656,1.881-2.287,2.597
					c1.161,1.166,4.085,0.375,5.367,0.164"/>
				<path style="fill:#594734;" d="M370.773,347.959c0.865-1.126,1.296-0.116,1.333,0.756c-0.556,0.033-1.921,0.24-1.814-0.659"/>
				<path style="fill:#594734;" d="M373.948,348.434c0.873-0.065,1.713,0.506,2.576,0.449c0.215,1.482-1.23,4.088-2.076,4.031
					c-1.041-0.07-1.331-3.224-1-4.48"/>
				<path style="fill:#594734;" d="M385.51,346.71c-0.024,0.875-0.679,1.652-0.71,2.517c-1.496,0.062-3.941-1.642-3.798-2.477
					c0.176-1.028,3.344-0.995,4.559-0.537"/>
				<path style="fill:#594734;" d="M380.09,343.51c0,0.004,0,0.009,0,0.013c-0.033,0.793-1.003,1.187-1.649,0.727
					c-0.344-0.245-0.588-0.529-0.555-0.72c0.086-0.503,1.635-0.487,2.23-0.263"/>
				<path style="fill:#594734;" d="M385.464,350.991c0.811-0.118,1.582-0.499,2.332-0.833c0.29,2.194-2.727,3.668-2.999,1.333"/>
				<path style="fill:#594734;" d="M377.131,352.491c0.508-0.657,2.038,0.405,1.974,1.304c-1.005,0.724-2.044-0.083-1.808-1.304"/>
				<path style="fill:#594734;" d="M372.297,345.324c0.144-0.893,1.101-1.623,1.975-1.65c0.091,0.473,0.082,1.157,0.009,1.629
					c-0.748,0.331-1.625,0.618-1.983-0.313"/>
			</g>
			<g>
				<path style="fill:#936C41;" d="M372.236,358.579c-2.09-5.046-12.754-5.25-17.791-4.042c-5.177,1.242-10.262,4.475-10.709,9.201
					c-0.697,7.365,8.612,7.82,15.014,7.82c4.538,0,8.553,0.21,11.28-2.921C372.441,365.867,374.736,363.898,372.236,358.579z"/>
				<path style="fill:#594734;" d="M366.066,367.853c0.227-1.118-2.304-2.429-2.683-1.391c-0.313,0.857,0.064,2.09,1.294,2.453
					C365.349,369.113,365.914,368.603,366.066,367.853z"/>
				<path style="fill:#594734;" d="M355.423,366.616c-0.46-1.555-2.737-4.197-4.57-3.848c-1.581,0.301-2.456,2.79-3.393,3.853
					c1.723,1.729,6.06,0.556,7.963,0.243"/>
				<path style="fill:#594734;" d="M352.878,360.029c0.865-1.126,1.296-0.116,1.333,0.756c-0.556,0.033-1.921,0.24-1.814-0.659"/>
				<path style="fill:#594734;" d="M356.736,359.15c0.698-0.052,1.37,0.405,2.062,0.359c0.172,1.186-0.985,3.271-1.661,3.226
					c-0.833-0.056-1.066-2.58-0.801-3.585"/>
				<path style="fill:#594734;" d="M367.615,358.78c-0.024,0.875-0.679,1.652-0.71,2.517c-1.496,0.062-3.941-1.642-3.798-2.477
					c0.176-1.028,3.344-0.995,4.559-0.537"/>
				<path style="fill:#594734;" d="M362.195,355.581c0,0.004,0,0.009-0.001,0.013c-0.033,0.793-1.003,1.187-1.649,0.726
					c-0.344-0.245-0.588-0.529-0.555-0.72c0.086-0.503,1.635-0.487,2.23-0.263"/>
				<path style="fill:#594734;" d="M367.569,363.061c0.811-0.117,1.582-0.499,2.332-0.833c0.29,2.194-2.727,3.668-2.999,1.333"/>
				<path style="fill:#594734;" d="M358.889,364.963c-0.649-2.004,3.769-3.688,5.559-2.266c0.075,3.141-3.103,4.161-5.32,1.917"/>
				<path style="fill:#594734;" d="M357.488,369.634c0.145-0.893,1.101-1.624,1.975-1.65c0.091,0.473,0.082,1.157,0.009,1.629
					c-0.748,0.332-1.625,0.618-1.984-0.313"/>
			</g>
			<g>
				<path style="fill:#82613A;" d="M401.325,355.182c-2.839-4.667-13.408-3.233-18.2-1.267c-4.925,2.02-9.455,5.995-9.172,10.734
					c0.44,7.385,9.709,6.407,16.035,5.426c4.484-0.696,8.484-1.104,10.698-4.616C402.645,362.353,404.611,360.055,401.325,355.182z"
					/>
				<path style="fill:#594734;" d="M394.139,359.414c2.75-1.108,1.232-5.353-1.608-4.503c-2.346,0.702-4.314,2.585-2.996,4.319
					C390.255,360.177,392.294,360.157,394.139,359.414z"/>
				<path style="fill:#594734;" d="M387.436,366.763c-0.467-0.988-2.257-2.513-3.441-2.091c-1.022,0.364-1.348,2.112-1.862,2.917
					c1.326,0.974,4.094-0.256,5.329-0.661"/>
				<path style="fill:#594734;" d="M382.169,359.99c1.18-2.155,2.186-0.542,2.48,0.939c-0.942,0.204-3.223,0.921-3.278-0.647"/>
				<path style="fill:#594734;" d="M376.495,362.557c1.713-0.342,3.474,0.052,5.171-0.278c0.687,1.622-1.709,5.035-3.391,5.23
					c-2.069,0.24-3.202-3.266-2.769-4.799"/>
				<path style="fill:#594734;" d="M397.4,360.326c0.784-0.24,1.487-0.736,2.177-1.18c0.623,2.124-2.132,4.042-2.759,1.776"/>
				<path style="fill:#594734;" d="M389.396,363.086c0.401-0.727,2.076,0.088,2.151,0.986c-0.882,0.869-2.033,0.231-1.986-1.012"/>
				<path style="fill:#594734;" d="M383.521,356.745c0.006-0.905,0.839-1.773,1.699-1.933c0.162,0.453,0.259,1.131,0.258,1.609
					c-0.688,0.442-1.511,0.86-2.008-0.005"/>
			</g>
		</g>
		<g>
			<g>
				<path style="fill:#3F4F49;" d="M445.069,328.199c0.027-6.49,0.46-10.651,3.826-12.543c3.364-1.891,7.619,0.038,8.702,3.741
					c0.778,2.66,1.336,5.221,1.189,8.722c-4.121,0.176-8.315,0.08-12.463,0.08"/>
				<path style="fill:#3F4F49;" d="M420.4,355.376c-3.117-0.016-7.324,0.792-8.551-2.415c-0.961-2.51-1.089-5.998-1.228-8.659
					c-0.115-2.2,0.112-6.069-1.146-7.897c-1.529-2.222-2.876,0.188-4.94-0.027c0.294,1.525,1.429,3.01,1.806,4.641
					c0.353,1.529,0.262,3.08,0.262,4.673c0,3.925-0.038,7.853,0,11.778c0.039,4.039,2.657,7.071,5.911,9.402
					c1.84,1.319,8.15,3.074,7.26-1.253"/>
				<path style="fill:#3F4F49;" d="M477.126,337.602c4.705-2.463,7.082-3.083,11.729-0.377c4.295,2.501,5.121,8.096,6.158,12.6
					c1.105,4.799,2.457,11.496-0.144,15.93c-2.455,4.185-7.665,5.153-12.27,4.715c-0.097-1.567-0.049-3.19-0.033-4.769
					c4.844-0.644,7.341-1.093,8.422-5.867c0.843-3.724,1.122-8.617-0.538-12.291c-1.539-3.405-4.277-5.705-8.032-5.328
					c-0.733,0.074-2.297,0.781-2.978,0.559C477.609,342.178,477.998,340.524,477.126,337.602z"/>
				<path style="fill:#C9B273;" d="M428.344,332.635c-2.558,3.031-5.622,4.872-7.223,8.76c-1.401,3.402-2.019,6.926-2.405,10.635
					c-0.657,6.313-2.318,16.365,1.402,21.712c4.386,6.305,9.776,8.893,16.663,9.934c7.986,1.207,16.778,0.696,24.916,0.368
					c7.731-0.311,16.633-1.5,21.502-9.156c1.855-2.918,1.577-7.079,1.591-10.616c0.018-4.868-0.238-9.295-0.889-14.035
					c-0.798-5.816-4.244-12.463-7.922-16.497c-2.145-2.353-4.549-2.75-7.506-2.763c-8.907-0.039-17.859-0.665-26.75-0.474"/>
				<path style="fill:#3F4F49;" d="M450.086,324.018c-4.23,0-7.811,0.206-11.81,1.831c-2.306,0.937-11.248,3.395-10.573,7.624
					c0.837,5.239,25.712,3.077,29.233,2.886c5.286-0.286,10.375-0.861,15.443-1.579c2.627-0.372,3.552-0.245,3.212-3.124
					C475.297,329.16,459.049,322.763,450.086,324.018z"/>
			</g>
			<g>
				<defs>
					<path id="SVGID_00000173139262977947044590000014748387960373767101_" d="M428.344,332.635
						c-2.558,3.031-5.622,4.872-7.223,8.76c-1.401,3.402-2.019,6.926-2.405,10.635c-0.657,6.313-2.318,16.365,1.402,21.712
						c4.386,6.305,9.776,8.893,16.663,9.934c7.986,1.207,16.778,0.696,24.916,0.368c7.731-0.311,16.633-1.5,21.502-9.156
						c1.855-2.918,1.577-7.079,1.591-10.616c0.018-4.868-0.238-9.295-0.889-14.035c-0.798-5.816-4.244-12.463-7.922-16.497
						c-2.145-2.353-4.549-2.75-7.506-2.763c-8.907-0.039-17.859-0.665-26.75-0.474"/>
				</defs>
				<clipPath id="SVGID_00000183244464949854467510000006679757614527513484_">
					<use xlink:href="#SVGID_00000173139262977947044590000014748387960373767101_"  style="overflow:visible;"/>
				</clipPath>
				<g style="clip-path:url(#SVGID_00000183244464949854467510000006679757614527513484_);">
					<g>
						<path style="fill:#3F4F49;" d="M439.842,358.303c-1.61-4.276-0.665-10.677,5.077-11.094c5.733-0.416,2.563,6.637,1.796,9.368
							c2.243-3.174,8.922-3.452,9.689,0.727c0.768,4.185-3.549,4.009-6.693,3.906c3.197,1.435,7.154,5.938,4.089,9.321
							c-3.312,3.657-6.648-0.847-8.12-3.619c0.479,4.564-3.387,5.878-7.13,5.615c-2.535-0.178-4.371-0.994-3.949-3.824
							c0.31-2.075,2.348-2.955,3.571-4.526c-3.351-0.141-7.673-0.642-6.468-5.467C432.497,355.544,437.348,356.316,439.842,358.303z
							"/>
						<path style="fill:#677770;" d="M445.85,361.73c0,1.024-0.83,1.854-1.854,1.854c-1.024,0-1.854-0.83-1.854-1.854
							c0-1.024,0.83-1.854,1.854-1.854C445.02,359.876,445.85,360.706,445.85,361.73z"/>
					</g>
					<g>
						<path style="fill:#3F4F49;" d="M468.797,374.818c1.121-4.429,5.553-9.144,10.504-6.205c4.943,2.934-1.687,6.912-3.877,8.715
							c3.654-1.324,9.295,2.263,7.537,6.131c-1.76,3.874-5.203,1.263-7.725-0.617c1.804,3.004,2.48,8.96-1.968,9.987
							c-4.807,1.109-4.972-4.492-4.598-7.609c-2.214,4.02-6.137,2.89-9.06,0.536c-1.98-1.594-3.02-3.313-1.057-5.395
							c1.439-1.526,3.615-1.084,5.517-1.675c-2.67-2.03-5.931-4.91-2.186-8.181C464.343,368.358,467.884,371.762,468.797,374.818z"
							/>
						<path style="fill:#677770;" d="M471.77,381.063c-0.585,0.841-1.74,1.048-2.581,0.463c-0.841-0.585-1.048-1.74-0.463-2.581
							c0.585-0.841,1.741-1.048,2.581-0.463C472.148,379.067,472.355,380.223,471.77,381.063z"/>
					</g>
					<g>
						<path style="fill:#3F4F49;" d="M462.999,343.989c0.56-2.213,2.774-4.568,5.248-3.1c2.47,1.466-0.843,3.453-1.937,4.354
							c1.826-0.661,4.644,1.131,3.766,3.063c-0.879,1.935-2.599,0.631-3.859-0.308c0.901,1.501,1.239,4.477-0.983,4.99
							c-2.402,0.554-2.484-2.245-2.297-3.801c-1.106,2.008-3.066,1.444-4.526,0.268c-0.989-0.796-1.509-1.655-0.528-2.695
							c0.719-0.763,1.806-0.542,2.756-0.837c-1.334-1.014-2.963-2.453-1.092-4.087C460.775,340.761,462.543,342.462,462.999,343.989
							z"/>
						<path style="fill:#677770;" d="M464.485,347.109c-0.292,0.42-0.87,0.523-1.29,0.231c-0.42-0.292-0.523-0.87-0.231-1.289
							c0.292-0.42,0.87-0.523,1.29-0.231C464.674,346.111,464.777,346.689,464.485,347.109z"/>
					</g>
					<g>
						<path style="fill:#3F4F49;" d="M483.838,350.048c0.853-3.372,4.227-6.962,7.997-4.724c3.764,2.233-1.284,5.262-2.952,6.635
							c2.782-1.008,7.076,1.723,5.738,4.668c-1.34,2.949-3.961,0.962-5.881-0.47c1.374,2.287,1.889,6.822-1.498,7.604
							c-3.66,0.845-3.786-3.42-3.5-5.793c-1.686,3.061-4.672,2.2-6.898,0.408c-1.507-1.214-2.299-2.522-0.805-4.107
							c1.096-1.162,2.752-0.826,4.2-1.275c-2.033-1.546-4.516-3.738-1.664-6.229C480.448,345.129,483.143,347.721,483.838,350.048z"
							/>
						<path style="fill:#677770;" d="M486.102,354.802c-0.445,0.64-1.325,0.798-1.965,0.352c-0.64-0.445-0.798-1.325-0.352-1.965
							c0.445-0.64,1.325-0.798,1.965-0.352C486.39,353.283,486.547,354.163,486.102,354.802z"/>
					</g>
					<g>
						<path style="fill:#3F4F49;" d="M426.49,343.195c3.278,0.413,7.053,3.177,5.381,6.991c-1.669,3.807-5.109-0.6-6.597-2.013
							c1.273,2.505-0.803,6.87-3.735,5.951c-2.935-0.921-1.366-3.622-0.239-5.598c-1.996,1.56-6.211,2.572-7.341-0.53
							c-1.221-3.352,2.785-3.965,5.054-3.972c-3.081-1.234-2.616-4.149-1.185-6.455c0.969-1.562,2.111-2.46,3.778-1.235
							c1.223,0.898,1.098,2.499,1.689,3.811c1.221-2.095,3-4.691,5.678-2.292C430.733,339.428,428.603,342.27,426.49,343.195z"/>
						<path style="fill:#677770;" d="M422.271,345.881c-0.655-0.346-0.906-1.157-0.56-1.811c0.345-0.655,1.157-0.906,1.811-0.56
							c0.655,0.346,0.906,1.157,0.56,1.811C423.737,345.975,422.926,346.226,422.271,345.881z"/>
					</g>
					<g>
						<path style="fill:#3F4F49;" d="M427.721,378.525c3.278,0.413,7.053,3.177,5.381,6.991c-1.669,3.807-5.109-0.6-6.597-2.013
							c1.273,2.506-0.803,6.871-3.735,5.951c-2.935-0.921-1.366-3.622-0.239-5.598c-1.996,1.56-6.212,2.572-7.341-0.53
							c-1.221-3.352,2.785-3.965,5.054-3.972c-3.081-1.234-2.616-4.149-1.185-6.455c0.969-1.562,2.111-2.46,3.779-1.235
							c1.223,0.898,1.097,2.499,1.689,3.811c1.221-2.095,3-4.691,5.679-2.292C431.964,374.759,429.834,377.6,427.721,378.525z"/>
						<path style="fill:#677770;" d="M423.502,381.211c-0.655-0.346-0.906-1.157-0.56-1.811c0.346-0.655,1.157-0.906,1.811-0.56
							c0.655,0.346,0.906,1.157,0.56,1.812C424.968,381.306,424.157,381.557,423.502,381.211z"/>
					</g>
				</g>
			</g>
		</g>
	</g>
	<g>
		<g>
			<ellipse style="fill:#F4EFEF;" cx="188" cy="369.667" rx="40.667" ry="11.667"/>
			<ellipse style="fill:#E2D7D7;" cx="189.603" cy="369.167" rx="26.833" ry="7.667"/>
			<path style="fill:#F4EFEF;" d="M163,336.5c-4.101,11.036-3.147,30.098,9.543,34.518c10.083,3.512,22.422,3.033,32.041-0.786
				c10.26-4.073,9.926-14.23,9.916-24.393c-0.004-3.852,1.049-7.926-1.746-10.545c-2.706-2.536-8.761-2.51-12.107-2.793
				c-6.72-0.569-13.506-0.5-20.271-0.5C172.019,332,163.352,332.833,163,336.5"/>
			<ellipse style="fill:#E2D7D7;" cx="189.094" cy="337.879" rx="22.519" ry="4.454"/>
			<g>
				<path style="fill:none;" d="M189.094,333.425c-12.437,0-22.519,1.994-22.519,4.454c0,0.656,0.723,1.279,2.011,1.839
					c3.399-1.045,7.16-1.35,10.612-1.712c4.956-0.519,9.905-0.882,14.895-0.677c4.289,0.176,8.796,1.208,12.953,2.206
					c0.525,0.126,1.258,0.228,1.917,0.44c1.689-0.625,2.65-1.339,2.65-2.097C211.613,335.419,201.531,333.425,189.094,333.425z"/>
				<path style="fill:#6B5555;" d="M194.093,337.33c-4.99-0.205-9.939,0.157-14.895,0.677c-3.452,0.362-7.213,0.667-10.612,1.712
					c3.541,1.542,11.388,2.615,20.508,2.615c8.604,0,16.078-0.955,19.87-2.358c-0.659-0.212-1.393-0.314-1.917-0.44
					C202.889,338.538,198.382,337.506,194.093,337.33z"/>
			</g>
			<path style="fill:#F4EFEF;" d="M213,341.667c1.872-1.191,5.499-0.549,7.201,0.659c2.274,1.615,2.671,3.872,2.806,6.488
				c0.148,2.871,0.45,6.4-2.187,8.094c-2.758,1.772-4.932,2.065-8.127,1.902c-0.053-0.915-0.043-1.87-0.008-2.791
				c3.444-0.088,6.771-2.119,6.989-5.789c0.12-2.018,0.26-4.158-2.043-4.696c-1.582-0.369-3.029,0.511-4.475,0.298
				C212.846,345.02,213.229,344.186,213,341.667z"/>
		</g>
		
			<linearGradient id="SVGID_00000085960768061565113730000005221018910144934283_" gradientUnits="userSpaceOnUse" x1="201.2628" y1="298.3229" x2="188.2551" y2="347.4338">
			<stop  offset="0" style="stop-color:#FFFFFF;stop-opacity:0"/>
			<stop  offset="1" style="stop-color:#FFFFFF"/>
		</linearGradient>
		<path style="fill:url(#SVGID_00000085960768061565113730000005221018910144934283_);" d="M177.765,338.616
			c2.044,0.178,3.472-0.679,5.2-1.57c3.298-1.701,12.492-3.843,12.604-8.041c0.165-6.206-11.481-4.984-13.88-9.849
			c-2.059-4.175-1.361-6.818,2.993-8.082c5.511-1.6,12.007-1.64,16.529-5.265c3.42-2.741,6.353-5.705,5.416-10.35
			c-0.74-3.669-4.775-10.094-8.832-10.477c7.085,0.103,14.787,0.165,18.275,7.84c2.801,6.163,0.853,11.379-5.041,14.2
			c-3.342,1.6-21.576,4.202-16.671,11.564c1.278,1.918,4.704,2.146,6.363,3.827c2.408,2.44,2.887,4.868,3.066,8.244
			C204.361,341.515,186.678,343.883,177.765,338.616z"/>
	</g>
</g>
</svg>
